<svg width="226" height="41" viewBox="0 0 226 41" fill="none" xmlns="http://www.w3.org/2000/svg">
<g clip-path="url(#clip0_4551_20679)">
<path d="M62.1471 32.7389C60.0832 32.7773 58.0434 32.2998 56.221 31.3516C54.5308 30.4605 53.1393 29.1116 52.2133 27.4666C51.2604 25.7945 50.783 23.8185 50.7812 21.5386V20.9716C50.7812 18.7213 51.2586 16.7522 52.2133 15.0645C53.1321 13.4056 54.5246 12.0439 56.221 11.1455C58.0593 10.2402 60.0889 9.76868 62.1471 9.76868C64.2053 9.76868 66.2349 10.2402 68.0732 11.1455C69.7696 12.0439 71.1621 13.4056 72.0809 15.0645C73.0356 16.7522 73.513 18.7213 73.513 20.9716V21.549C73.513 23.8272 73.0356 25.8033 72.0809 27.4771C71.1549 29.1221 69.7634 30.471 68.0732 31.3621C66.2498 32.3066 64.2101 32.7805 62.1471 32.7389ZM62.1471 29.5855C64.509 29.5855 66.3935 28.8531 67.8007 27.3882C69.2078 25.9234 69.9123 23.9474 69.9141 21.4602V21.0605C69.9141 18.5732 69.2096 16.5963 67.8007 15.1298C66.3917 13.6632 64.5072 12.9308 62.1471 12.9326C59.8155 12.9326 57.9381 13.665 56.5149 15.1298C55.0918 16.5946 54.3793 18.5715 54.3775 21.0605V21.4602C54.3775 23.9474 55.09 25.9234 56.5149 27.3882C57.9399 28.8531 59.8173 29.5855 62.1471 29.5855Z" fill="white"/>
<path d="M84.8026 32.5168C83.264 32.5324 81.7446 32.1818 80.3754 31.4953C79.0281 30.8158 77.9204 29.7563 77.196 28.4542C76.4247 27.106 76.0391 25.4705 76.0391 23.5476V10.4009H79.6166V23.2811C79.6166 25.4409 80.1688 27.0085 81.2731 27.9839C82.3775 28.9593 83.8737 29.4487 85.7618 29.4522C87.8832 29.4522 89.6243 28.772 90.9851 27.4117C92.346 26.0514 93.0273 24.0231 93.0291 21.3269V10.4009H96.6173V32.1171H93.1146V28.4333H92.4787C91.9082 29.5676 91.0477 30.5387 89.9805 31.2523C88.7996 32.0953 87.0736 32.5168 84.8026 32.5168Z" fill="white"/>
<path d="M109.811 32.1171C108.539 32.1171 107.56 31.7766 106.872 31.0955C106.184 30.4145 105.844 29.4818 105.851 28.2974V13.4655H99.1719V10.4009H105.851V2.67273H109.44V10.4009H116.704V13.4655H109.434V27.767C109.434 28.6536 109.873 29.0969 110.751 29.0969H115.689V32.1171H109.811Z" fill="white"/>
<path d="M129.644 32.7388C126.888 32.7388 124.564 32.117 122.673 30.8734C120.781 29.6298 119.638 27.6616 119.242 24.9689L122.649 24.2138C122.891 25.6351 123.345 26.7524 124.011 27.5658C124.65 28.3621 125.509 28.9632 126.485 29.298C127.5 29.6469 128.568 29.8236 129.644 29.8205C131.307 29.8205 132.624 29.4948 133.595 28.8434C134.047 28.5668 134.418 28.1811 134.672 27.7234C134.927 27.2658 135.056 26.7517 135.049 26.2308C135.049 25.1039 134.586 24.3114 133.662 23.8533C132.457 23.3091 131.181 22.9285 129.871 22.722L128 22.4111C126.657 22.196 125.346 21.8232 124.094 21.3008C123.003 20.8501 122.042 20.1419 121.299 19.2394C120.57 18.3123 120.192 17.1663 120.231 15.9971C120.231 14.0429 121.003 12.518 122.547 11.4224C124.092 10.3268 126.14 9.77905 128.692 9.77905C131.204 9.77905 133.24 10.3338 134.8 11.4433C136.36 12.5528 137.368 14.1151 137.822 16.1304L134.458 16.9821C134.186 15.4145 133.535 14.3111 132.505 13.6719C131.475 13.0326 130.204 12.7148 128.69 12.7183C127.174 12.7183 125.978 12.9917 125.101 13.5386C124.68 13.7897 124.335 14.147 124.104 14.5731C123.872 14.9992 123.762 15.4784 123.784 15.9605C123.784 17.0056 124.201 17.7676 125.035 18.2466C126.071 18.8029 127.201 19.1711 128.372 19.3334L130.242 19.6443C131.688 19.8783 133.11 20.2421 134.488 20.7312C135.645 21.1253 136.678 21.8068 137.485 22.709C138.228 23.5659 138.599 24.6911 138.599 26.0845C138.599 28.2146 137.789 29.8571 136.168 31.0119C134.547 32.1667 132.372 32.7423 129.644 32.7388Z" fill="white"/>
<path d="M152.514 32.7388C150.45 32.7772 148.411 32.2997 146.588 31.3515C144.898 30.4604 143.506 29.1115 142.581 27.4665C141.626 25.7944 141.148 23.8184 141.148 21.5384V20.9715C141.148 18.7212 141.626 16.7521 142.581 15.0643C143.499 13.4055 144.892 12.0438 146.588 11.1454C148.426 10.2401 150.456 9.76855 152.514 9.76855C154.573 9.76855 156.602 10.2401 158.44 11.1454C160.137 12.0438 161.529 13.4055 162.448 15.0643C163.401 16.7521 163.878 18.7212 163.88 20.9715V21.5489C163.88 23.8271 163.403 25.8031 162.448 27.477C161.52 29.1184 160.127 30.4636 158.438 31.3515C156.616 32.2992 154.577 32.7767 152.514 32.7388ZM152.514 29.5853C154.876 29.5853 156.761 28.8529 158.168 27.3881C159.575 25.9233 160.279 23.9473 160.281 21.4601V21.0603C160.281 18.5731 159.577 16.5962 158.168 15.1297C156.759 13.6631 154.874 12.9307 152.514 12.9324C150.181 12.9324 148.304 13.6649 146.882 15.1297C145.461 16.5945 144.748 18.5714 144.745 21.0603V21.4601C144.745 23.9473 145.457 25.9233 146.882 27.3881C148.307 28.8529 150.184 29.5853 152.514 29.5853Z" fill="white"/>
<path d="M166.414 32.1171V10.4009H169.909V13.0632H170.545C170.881 12.1799 171.524 11.4402 172.362 10.9731C173.179 10.529 174.254 10.3069 175.586 10.3069H178.21V13.51H175.359C173.756 13.51 172.462 13.9454 171.477 14.8163C170.492 15.6872 170 17.0422 170 18.8815V32.1145L166.414 32.1171Z" fill="white"/>
<path d="M192.075 32.7389C190.059 32.7699 188.067 32.3045 186.283 31.3855C184.586 30.4921 183.183 29.1446 182.24 27.5006C181.257 25.8128 180.766 23.8098 180.766 21.4915V21.016C180.766 18.6768 181.257 16.6738 182.24 15.007C183.188 13.3714 184.589 12.0317 186.283 11.1429C188.067 10.2239 190.059 9.7585 192.075 9.78954C194.195 9.78954 196.004 10.1745 197.502 10.9443C198.93 11.654 200.15 12.7089 201.045 14.0089C201.891 15.2388 202.456 16.6325 202.701 18.0951L199.204 18.8057C199.063 17.7658 198.699 16.7669 198.135 15.8744C197.562 14.9745 196.755 14.239 195.797 13.7425C194.659 13.178 193.394 12.903 192.118 12.943C190.728 12.9197 189.356 13.2569 188.142 13.9201C186.969 14.5812 186.01 15.5518 185.374 16.7208C184.666 18.06 184.315 19.553 184.357 21.0604V21.4602C184.314 22.9722 184.665 24.47 185.377 25.8128C186.014 26.9803 186.974 27.9491 188.148 28.6083C189.361 29.2727 190.733 29.6099 192.123 29.5854C194.334 29.5854 196.026 29.0229 197.2 27.8977C198.367 26.7721 199.125 25.304 199.359 23.7175L202.899 24.4725C202.556 25.9179 201.94 27.2878 201.082 28.5117C200.177 29.8108 198.951 30.8651 197.518 31.5763C196.009 32.3531 194.195 32.7406 192.075 32.7389Z" fill="white"/>
<path d="M208.374 41V37.8831H221.092C221.968 37.8831 222.409 37.439 222.409 36.5507V28.6527H221.773C221.421 29.3397 220.952 29.9634 220.387 30.4972C219.693 31.1487 218.865 31.6484 217.958 31.9629C216.745 32.365 215.468 32.5525 214.188 32.5168C212.649 32.5327 211.13 32.1821 209.761 31.4953C208.418 30.8207 207.311 29.7701 206.581 28.4777C205.808 27.1487 205.422 25.521 205.422 23.5947V10.4009H209.01V23.3256C209.01 25.4575 209.563 27.0111 210.669 27.9865C211.775 28.9619 213.266 29.4504 215.142 29.4522C217.26 29.4522 219.001 28.772 220.365 27.4117C221.73 26.0514 222.411 24.0231 222.409 21.3269V10.4009H225.997V37.1803C225.997 38.3647 225.656 39.2974 224.974 39.9785C224.292 40.6595 223.301 41 222 41H208.374Z" fill="white"/>
<path d="M20.1363 1.3933e-06C20.6321 -0.000515455 21.1169 0.142773 21.5294 0.411739C21.9419 0.680705 22.2635 1.06326 22.4536 1.51101C22.6437 1.95877 22.6937 2.45159 22.5973 2.92714C22.5009 3.40269 22.2624 3.8396 21.912 4.18259C21.5616 4.52558 21.1151 4.75924 20.6289 4.85401C20.1427 4.94878 19.6386 4.90041 19.1805 4.715C18.7224 4.52959 18.3309 4.21549 18.0554 3.81243C17.7799 3.40936 17.6328 2.93545 17.6328 2.45065C17.6328 1.80115 17.8965 1.17821 18.3659 0.718702C18.8353 0.259192 19.4721 0.000693823 20.1363 1.3933e-06Z" fill="white"/>
<path d="M20.1363 6.36963C20.6321 6.36911 21.1169 6.5124 21.5294 6.78137C21.9419 7.05033 22.2635 7.43289 22.4536 7.88064C22.6437 8.32839 22.6937 8.82122 22.5973 9.29677C22.5009 9.77232 22.2624 10.2092 21.912 10.5522C21.5616 10.8952 21.1151 11.1289 20.6289 11.2236C20.1427 11.3184 19.6386 11.27 19.1805 11.0846C18.7224 10.8992 18.3309 10.5851 18.0554 10.1821C17.7799 9.77899 17.6328 9.30508 17.6328 8.82028C17.6328 8.49845 17.6976 8.17978 17.8236 7.88246C17.9495 7.58513 18.1341 7.31497 18.3668 7.08741C18.8368 6.62782 19.4743 6.36963 20.139 6.36963" fill="white"/>
<path d="M20.1363 27.3987C20.6321 27.3982 21.1169 27.5415 21.5294 27.8104C21.9419 28.0794 22.2635 28.4619 22.4536 28.9097C22.6437 29.3574 22.6937 29.8503 22.5973 30.3258C22.5009 30.8014 22.2624 31.2383 21.912 31.5813C21.5616 31.9243 21.1151 32.1579 20.6289 32.2527C20.1427 32.3475 19.6386 32.2991 19.1805 32.1137C18.7224 31.9283 18.3309 31.6142 18.0554 31.2111C17.7799 30.808 17.6328 30.3341 17.6328 29.8493C17.6328 29.1994 17.8969 28.576 18.3668 28.1165C18.8368 27.6569 19.4743 27.3987 20.139 27.3987" fill="white"/>
<path d="M20.1363 33.7029C20.6319 33.7024 21.1164 33.8455 21.5288 34.1143C21.9412 34.383 22.2628 34.7652 22.4531 35.2127C22.6433 35.6601 22.6936 36.1527 22.5977 36.6281C22.5017 37.1035 22.2638 37.5404 21.9139 37.8836C21.5641 38.2268 21.118 38.4609 20.6321 38.5563C20.1463 38.6516 19.6424 38.604 19.1842 38.4194C18.726 38.2348 18.3341 37.9215 18.058 37.5191C17.7818 37.1167 17.6339 36.6433 17.6328 36.1588C17.6321 35.8367 17.6963 35.5177 17.8218 35.2199C17.9473 34.9222 18.1315 34.6515 18.364 34.4234C18.5965 34.1953 18.8727 34.0143 19.1768 33.8907C19.4809 33.767 19.807 33.7032 20.1363 33.7029Z" fill="white"/>
<path d="M12.7562 9.31138C13.2521 9.31138 13.7368 9.45524 14.1491 9.72475C14.5613 9.99426 14.8825 10.3773 15.0721 10.8254C15.2616 11.2735 15.3109 11.7665 15.2138 12.242C15.1166 12.7176 14.8774 13.1542 14.5264 13.4967C14.1754 13.8393 13.7283 14.0722 13.2418 14.1662C12.7553 14.2602 12.2512 14.2109 11.7934 14.0246C11.3355 13.8383 10.9445 13.5234 10.6698 13.1197C10.395 12.716 10.2489 12.2417 10.25 11.7568C10.25 11.1068 10.514 10.4835 10.984 10.0239C11.454 9.56435 12.0915 9.30615 12.7562 9.30615" fill="white"/>
<path d="M9.4749 17.3191C9.97057 17.3191 10.4551 17.4628 10.8672 17.7321C11.2794 18.0014 11.6006 18.3841 11.7903 18.8319C11.98 19.2797 12.0296 19.7725 11.9329 20.2478C11.8362 20.7232 11.5975 21.1599 11.247 21.5026C10.8965 21.8453 10.45 22.0787 9.96383 22.1733C9.47768 22.2679 8.97378 22.2193 8.51584 22.0338C8.0579 21.8484 7.66649 21.5343 7.39111 21.1312C7.11573 20.7282 6.96875 20.2544 6.96875 19.7697C6.96946 19.12 7.23373 18.4971 7.70357 18.0376C8.17341 17.5782 8.81045 17.3198 9.4749 17.3191Z" fill="white"/>
<path d="M12.7562 24.5378C13.2518 24.5378 13.7364 24.6816 14.1485 24.9509C14.5606 25.2201 14.8819 25.6029 15.0715 26.0507C15.2612 26.4985 15.3109 26.9912 15.2142 27.4666C15.1175 27.942 14.8788 28.3786 14.5283 28.7214C14.1778 29.0641 13.7312 29.2975 13.2451 29.392C12.7589 29.4866 12.255 29.4381 11.7971 29.2526C11.3392 29.0671 10.9477 28.753 10.6724 28.35C10.397 27.947 10.25 27.4732 10.25 26.9885C10.25 26.3385 10.514 25.7152 10.984 25.2556C11.454 24.796 12.0915 24.5378 12.7562 24.5378Z" fill="white"/>
<path d="M8.35988 29.3973C8.79108 29.3973 9.2126 29.5224 9.57113 29.7566C9.92966 29.9909 10.2091 30.3238 10.3741 30.7134C10.5391 31.103 10.5823 31.5316 10.4982 31.9452C10.4141 32.3587 10.2064 32.7386 9.90151 33.0367C9.5966 33.3349 9.20813 33.5379 8.78521 33.6202C8.3623 33.7024 7.92393 33.6602 7.52556 33.4989C7.12718 33.3375 6.78668 33.0643 6.54712 32.7137C6.30755 32.3631 6.17969 31.9509 6.17969 31.5292C6.17969 30.9638 6.40939 30.4216 6.81825 30.0218C7.22712 29.622 7.78166 29.3973 8.35988 29.3973Z" fill="white"/>
<path d="M31.9536 29.3973C32.3848 29.3973 32.8063 29.5224 33.1649 29.7566C33.5234 29.9909 33.8029 30.3238 33.9679 30.7134C34.1329 31.103 34.1761 31.5316 34.0919 31.9452C34.0078 32.3587 33.8002 32.7386 33.4953 33.0367C33.1904 33.3349 32.8019 33.5379 32.379 33.6202C31.956 33.7024 31.5177 33.6602 31.1193 33.4989C30.7209 33.3375 30.3804 33.0643 30.1409 32.7137C29.9013 32.3631 29.7734 31.9509 29.7734 31.5292C29.7734 30.9638 30.0031 30.4216 30.412 30.0218C30.8209 29.622 31.3754 29.3973 31.9536 29.3973Z" fill="white"/>
<path d="M31.9849 4.96411C32.4161 4.96411 32.8376 5.08915 33.1961 5.3234C33.5547 5.55766 33.8341 5.89062 33.9991 6.28017C34.1641 6.66973 34.2073 7.09838 34.1232 7.51193C34.0391 7.92548 33.8314 8.30535 33.5265 8.6035C33.2216 8.90166 32.8331 9.1047 32.4102 9.18696C31.9873 9.26922 31.5489 9.227 31.1506 9.06564C30.7522 8.90428 30.4117 8.63103 30.1721 8.28044C29.9326 7.92985 29.8047 7.51767 29.8047 7.09602C29.8047 6.5306 30.0344 5.98834 30.4433 5.58853C30.8521 5.18872 31.4067 4.96411 31.9849 4.96411Z" fill="white"/>
<path d="M8.25051 4.96411C8.68171 4.96411 9.10323 5.08915 9.46176 5.3234C9.82029 5.55766 10.0997 5.89062 10.2647 6.28017C10.4298 6.66973 10.4729 7.09838 10.3888 7.51193C10.3047 7.92548 10.097 8.30535 9.79214 8.6035C9.48723 8.90166 9.09876 9.1047 8.67584 9.18696C8.25292 9.26922 7.81456 9.227 7.41618 9.06564C7.0178 8.90428 6.6773 8.63103 6.43774 8.28044C6.19818 7.92985 6.07031 7.51767 6.07031 7.09602C6.07031 6.5306 6.30001 5.98834 6.70888 5.58853C7.11774 5.18872 7.67228 4.96411 8.25051 4.96411Z" fill="white"/>
<path d="M6.63741 23.7435C6.95753 23.744 7.2703 23.8373 7.53621 24.0116C7.80212 24.1859 8.00923 24.4334 8.13137 24.7227C8.25351 25.0121 8.28519 25.3303 8.22242 25.6373C8.15964 25.9442 8.00522 26.2261 7.77868 26.4472C7.55214 26.6684 7.26363 26.8189 6.94963 26.8798C6.63563 26.9407 6.31021 26.9092 6.01452 26.7893C5.71882 26.6694 5.4661 26.4664 5.28831 26.2061C5.11052 25.9458 5.01563 25.6398 5.01563 25.3268C5.01562 25.1187 5.05759 24.9126 5.13913 24.7203C5.22066 24.528 5.34017 24.3534 5.4908 24.2063C5.64143 24.0593 5.82023 23.9427 6.01698 23.8633C6.21373 23.7839 6.42456 23.7432 6.63741 23.7435Z" fill="white"/>
<path d="M6.63741 12.5171C6.95794 12.5171 7.27129 12.61 7.53787 12.784C7.80446 12.958 8.01233 13.2054 8.13523 13.4949C8.25813 13.7843 8.29056 14.1029 8.22842 14.4104C8.16627 14.7179 8.01234 15.0005 7.78606 15.2225C7.55979 15.4445 7.27131 15.5959 6.95707 15.6577C6.64283 15.7195 6.31691 15.6888 6.02048 15.5696C5.72404 15.4504 5.47039 15.2479 5.29154 14.9878C5.1127 14.7277 5.01668 14.4216 5.01563 14.1082C5.01528 13.8998 5.05698 13.6935 5.13836 13.5009C5.21974 13.3083 5.33919 13.1334 5.48985 12.986C5.64052 12.8387 5.81944 12.7219 6.01637 12.6423C6.21329 12.5628 6.42434 12.522 6.63741 12.5223" fill="white"/>
<path d="M15.1452 4.78638C15.4661 4.78638 15.7798 4.87946 16.0465 5.05383C16.3133 5.2282 16.5211 5.47603 16.6438 5.76597C16.7665 6.0559 16.7984 6.3749 16.7357 6.68259C16.6729 6.99029 16.5181 7.27286 16.2911 7.49455C16.064 7.71623 15.7748 7.86706 15.46 7.92796C15.1452 7.98885 14.819 7.95707 14.5227 7.83664C14.2264 7.71621 13.9733 7.51254 13.7955 7.2514C13.6176 6.99027 13.5229 6.6834 13.5234 6.36963C13.5234 6.1615 13.5654 5.9554 13.6469 5.76314C13.7285 5.57088 13.848 5.39623 13.9986 5.24918C14.1492 5.10213 14.328 4.98556 14.5248 4.90615C14.7215 4.82673 14.9324 4.78604 15.1452 4.78638Z" fill="white"/>
<path d="M15.1452 31.1217C15.4661 31.1217 15.7798 31.2148 16.0465 31.3892C16.3133 31.5635 16.5211 31.8114 16.6438 32.1013C16.7665 32.3912 16.7984 32.7102 16.7357 33.0179C16.6729 33.3256 16.5181 33.6082 16.2911 33.8299C16.064 34.0516 15.7748 34.2024 15.46 34.2633C15.1452 34.3242 14.819 34.2924 14.5227 34.172C14.2264 34.0515 13.9733 33.8479 13.7955 33.5867C13.6176 33.3256 13.5229 33.0187 13.5234 32.705C13.5234 32.4968 13.5654 32.2907 13.6469 32.0985C13.7285 31.9062 13.848 31.7316 13.9986 31.5845C14.1492 31.4375 14.328 31.3209 14.5248 31.2415C14.7215 31.1621 14.9324 31.1214 15.1452 31.1217Z" fill="white"/>
<path d="M24.8484 4.78638C25.1692 4.78638 25.4829 4.87945 25.7496 5.05383C26.0164 5.2282 26.2243 5.47603 26.3469 5.76596C26.4696 6.0559 26.5016 6.37489 26.4388 6.68259C26.376 6.99029 26.2213 7.27286 25.9942 7.49454C25.7671 7.71623 25.4779 7.86706 25.1631 7.92796C24.8483 7.98885 24.5222 7.95707 24.2259 7.83664C23.9296 7.71621 23.6765 7.51254 23.4986 7.2514C23.3207 6.99026 23.226 6.6834 23.2266 6.36963C23.2273 5.94949 23.3985 5.54679 23.7025 5.24994C24.0066 4.9531 24.4187 4.78638 24.8484 4.78638Z" fill="white"/>
<path d="M24.8484 31.1217C25.1692 31.1217 25.4829 31.2148 25.7496 31.3892C26.0164 31.5635 26.2243 31.8114 26.3469 32.1013C26.4696 32.3912 26.5016 32.7102 26.4388 33.0179C26.376 33.3256 26.2213 33.6082 25.9942 33.8299C25.7671 34.0516 25.4779 34.2024 25.1631 34.2633C24.8483 34.3242 24.5222 34.2924 24.2259 34.172C23.9296 34.0515 23.6765 33.8479 23.4986 33.5867C23.3207 33.3256 23.226 33.0187 23.2266 32.705C23.2273 32.2848 23.3985 31.8821 23.7025 31.5853C24.0066 31.2884 24.4187 31.1217 24.8484 31.1217Z" fill="white"/>
<path d="M33.6062 24.1041C33.9269 24.1041 34.2405 24.1971 34.5072 24.3714C34.7739 24.5456 34.9817 24.7933 35.1045 25.0831C35.2272 25.3729 35.2594 25.6918 35.1968 25.9994C35.1342 26.307 34.9797 26.5896 34.7529 26.8114C34.5261 27.0332 34.2372 27.1842 33.9226 27.2454C33.608 27.3066 33.2819 27.2752 32.9855 27.1551C32.6892 27.0351 32.4359 26.8318 32.2577 26.5711C32.0795 26.3103 31.9844 26.0036 31.9844 25.69C31.9851 25.2696 32.1562 24.8666 32.4602 24.5694C32.7642 24.2721 33.1763 24.1048 33.6062 24.1041Z" fill="white"/>
<path d="M33.6062 12.1487C33.9269 12.1487 34.2405 12.2417 34.5072 12.4159C34.7739 12.5902 34.9817 12.8379 35.1045 13.1277C35.2272 13.4174 35.2594 13.7363 35.1968 14.0439C35.1342 14.3516 34.9797 14.6341 34.7529 14.8559C34.5261 15.0777 34.2372 15.2288 33.9226 15.2899C33.608 15.3511 33.2819 15.3197 32.9855 15.1997C32.6892 15.0797 32.4359 14.8764 32.2577 14.6156C32.0795 14.3548 31.9844 14.0482 31.9844 13.7345C31.9844 13.314 32.1552 12.9106 32.4594 12.6132C32.7635 12.3158 33.176 12.1487 33.6062 12.1487Z" fill="white"/>
<path d="M2.50615 17.3191C3.00182 17.3191 3.48636 17.4628 3.8985 17.7321C4.31063 18.0014 4.63185 18.3841 4.82154 18.8319C5.01122 19.2797 5.06085 19.7725 4.96415 20.2478C4.86745 20.7232 4.62876 21.1599 4.27827 21.5026C3.92778 21.8453 3.48123 22.0787 2.99508 22.1733C2.50893 22.2679 2.00503 22.2193 1.54709 22.0338C1.08915 21.8484 0.697743 21.5343 0.422363 21.1312C0.146983 20.7282 0 20.2544 0 19.7697C0 19.1198 0.26404 18.4965 0.734035 18.0369C1.20403 17.5773 1.84148 17.3191 2.50615 17.3191Z" fill="white"/>
<path d="M27.3499 9.31138C26.854 9.31138 26.3693 9.45524 25.957 9.72475C25.5448 9.99426 25.2235 10.3773 25.034 10.8254C24.8445 11.2735 24.7952 11.7665 24.8923 12.242C24.9894 12.7176 25.2287 13.1542 25.5797 13.4967C25.9307 13.8393 26.3778 14.0722 26.8643 14.1662C27.3508 14.2602 27.8548 14.2109 28.3127 14.0246C28.7705 13.8383 29.1616 13.5234 29.4363 13.1197C29.711 12.716 29.8571 12.2417 29.8561 11.7568C29.8561 11.1068 29.592 10.4835 29.122 10.0239C28.652 9.56435 28.0146 9.30615 27.3499 9.30615" fill="white"/>
<path d="M31.0999 17.3191C30.6042 17.3191 30.1197 17.4628 29.7076 17.7321C29.2954 18.0014 28.9742 18.3841 28.7845 18.8319C28.5948 19.2797 28.5452 19.7725 28.6419 20.2478C28.7386 20.7232 28.9773 21.1599 29.3278 21.5026C29.6783 21.8453 30.1248 22.0787 30.611 22.1733C31.0971 22.2679 31.601 22.2193 32.059 22.0338C32.5169 21.8484 32.9083 21.5343 33.1837 21.1312C33.4591 20.7282 33.6061 20.2544 33.6061 19.7697C33.6054 19.12 33.3411 18.4971 32.8712 18.0376C32.4014 17.5782 31.7644 17.3198 31.0999 17.3191Z" fill="white"/>
<path d="M27.3499 24.5378C26.8542 24.5378 26.3697 24.6816 25.9576 24.9509C25.5454 25.2201 25.2242 25.6029 25.0345 26.0507C24.8448 26.4985 24.7952 26.9912 24.8919 27.4666C24.9886 27.942 25.2273 28.3786 25.5778 28.7214C25.9283 29.0641 26.3748 29.2975 26.861 29.392C27.3471 29.4866 27.851 29.4381 28.309 29.2526C28.7669 29.0671 29.1583 28.753 29.4337 28.35C29.7091 27.947 29.8561 27.4732 29.8561 26.9885C29.8561 26.3385 29.592 25.7152 29.122 25.2556C28.652 24.796 28.0146 24.5378 27.3499 24.5378Z" fill="white"/>
<path d="M37.7327 17.3191C37.237 17.3191 36.7525 17.4628 36.3404 17.7321C35.9282 18.0014 35.607 18.3841 35.4173 18.8319C35.2276 19.2797 35.178 19.7725 35.2747 20.2478C35.3714 20.7232 35.6101 21.1599 35.9606 21.5026C36.3111 21.8453 36.7576 22.0787 37.2438 22.1733C37.7299 22.2679 38.2338 22.2193 38.6918 22.0338C39.1497 21.8484 39.5411 21.5343 39.8165 21.1312C40.0919 20.7282 40.2389 20.2544 40.2389 19.7697C40.2389 19.1198 39.9748 18.4965 39.5048 18.0369C39.0348 17.5773 38.3974 17.3191 37.7327 17.3191Z" fill="white"/>
<path d="M37.7327 17.3191C37.237 17.3191 36.7525 17.4628 36.3404 17.7321C35.9282 18.0014 35.607 18.3841 35.4173 18.8319C35.2276 19.2797 35.178 19.7725 35.2747 20.2478C35.3714 20.7232 35.6101 21.1599 35.9606 21.5026C36.3111 21.8453 36.7576 22.0787 37.2438 22.1733C37.7299 22.2679 38.2338 22.2193 38.6918 22.0338C39.1497 21.8484 39.5411 21.5343 39.8165 21.1312C40.0919 20.7282 40.2389 20.2544 40.2389 19.7697C40.2389 19.1198 39.9748 18.4965 39.5048 18.0369C39.0348 17.5773 38.3974 17.3191 37.7327 17.3191Z" fill="white"/>
<path d="M37.7327 17.3191C37.237 17.3191 36.7525 17.4628 36.3404 17.7321C35.9282 18.0014 35.607 18.3841 35.4173 18.8319C35.2276 19.2797 35.178 19.7725 35.2747 20.2478C35.3714 20.7232 35.6101 21.1599 35.9606 21.5026C36.3111 21.8453 36.7576 22.0787 37.2438 22.1733C37.7299 22.2679 38.2338 22.2193 38.6918 22.0338C39.1497 21.8484 39.5411 21.5343 39.8165 21.1312C40.0919 20.7282 40.2389 20.2544 40.2389 19.7697C40.2389 19.1198 39.9748 18.4965 39.5048 18.0369C39.0348 17.5773 38.3974 17.3191 37.7327 17.3191Z" fill="white"/>
</g>
<defs>
<clipPath id="clip0_4551_20679">
<rect width="226" height="41" fill="white"/>
</clipPath>
</defs>
</svg>
