<svg width="22" height="22" viewBox="0 0 22 22" fill="none" xmlns="http://www.w3.org/2000/svg">
<g clip-path="url(#clip0_2826_10139)">
<path d="M2.74479 2.75H19.2448C19.4879 2.75 19.7211 2.84658 19.893 3.01849C20.0649 3.19039 20.1615 3.42355 20.1615 3.66667V18.3333C20.1615 18.5764 20.0649 18.8096 19.893 18.9815C19.7211 19.1534 19.4879 19.25 19.2448 19.25H2.74479C2.50168 19.25 2.26852 19.1534 2.09661 18.9815C1.9247 18.8096 1.82813 18.5764 1.82812 18.3333V3.66667C1.82812 3.42355 1.9247 3.19039 2.09661 3.01849C2.26852 2.84658 2.50168 2.75 2.74479 2.75ZM18.3281 6.63483L11.0608 13.1432L3.66146 6.61467V17.4167H18.3281V6.63483ZM4.12988 4.58333L11.0507 10.6902L17.8716 4.58333H4.12988Z" fill="white" fill-opacity="0.4"/>
</g>
<defs>
<clipPath id="clip0_2826_10139">
<rect width="22" height="22" fill="white"/>
</clipPath>
</defs>
</svg>
