<svg width="22" height="22" viewBox="0 0 22 22" fill="none" xmlns="http://www.w3.org/2000/svg">
<g clip-path="url(#clip0_2826_10149)">
<path d="M11 19.1579L15.5375 14.6204C16.4348 13.723 17.0459 12.5797 17.2934 11.335C17.541 10.0903 17.4138 8.80015 16.9282 7.6277C16.4425 6.45524 15.62 5.45313 14.5648 4.74809C13.5096 4.04305 12.2691 3.66673 11 3.66673C9.73093 3.66673 8.49036 4.04305 7.43516 4.74809C6.37996 5.45313 5.55752 6.45524 5.07184 7.6277C4.58616 8.80015 4.45905 10.0903 4.70658 11.335C4.95412 12.5797 5.56518 13.723 6.4625 14.6204L11 19.1579ZM11 21.7503L5.16634 15.9166C4.01256 14.7628 3.22684 13.2928 2.90852 11.6925C2.5902 10.0921 2.75358 8.43333 3.37801 6.92585C4.00243 5.41836 5.05986 4.12989 6.41656 3.22338C7.77326 2.31686 9.36831 1.83301 11 1.83301C12.6317 1.83301 14.2267 2.31686 15.5834 3.22338C16.9402 4.12989 17.9976 5.41836 18.622 6.92585C19.2464 8.43333 19.4098 10.0921 19.0915 11.6925C18.7732 13.2928 17.9874 14.7628 16.8337 15.9166L11 21.7503ZM11 11.9163C11.4862 11.9163 11.9525 11.7231 12.2964 11.3793C12.6402 11.0355 12.8333 10.5692 12.8333 10.0829C12.8333 9.59671 12.6402 9.13039 12.2964 8.78657C11.9525 8.44276 11.4862 8.2496 11 8.2496C10.5138 8.2496 10.0475 8.44276 9.70364 8.78657C9.35982 9.13039 9.16667 9.59671 9.16667 10.0829C9.16667 10.5692 9.35982 11.0355 9.70364 11.3793C10.0475 11.7231 10.5138 11.9163 11 11.9163ZM11 13.7496C10.0275 13.7496 9.09491 13.3633 8.40728 12.6757C7.71965 11.988 7.33334 11.0554 7.33334 10.0829C7.33334 9.11048 7.71965 8.17784 8.40728 7.49021C9.09491 6.80258 10.0275 6.41627 11 6.41627C11.9725 6.41627 12.9051 6.80258 13.5927 7.49021C14.2804 8.17784 14.6667 9.11048 14.6667 10.0829C14.6667 11.0554 14.2804 11.988 13.5927 12.6757C12.9051 13.3633 11.9725 13.7496 11 13.7496Z" fill="white" fill-opacity="0.4"/>
</g>
<defs>
<clipPath id="clip0_2826_10149">
<rect width="22" height="22" fill="white"/>
</clipPath>
</defs>
</svg>
