<svg width="26" height="26" viewBox="0 0 26 26" fill="none" xmlns="http://www.w3.org/2000/svg">
<g clip-path="url(#clip0_2274_19791)">
<path d="M12.9327 22.6607L18.2624 17.3309C19.3164 16.2768 20.0342 14.9339 20.3249 13.4718C20.6157 12.0098 20.4664 10.4944 19.8959 9.11725C19.3254 7.74008 18.3594 6.563 17.1199 5.73486C15.8805 4.90671 14.4233 4.46469 12.9327 4.46469C11.442 4.46469 9.98484 4.90671 8.74539 5.73486C7.50595 6.563 6.53991 7.74008 5.96943 9.11725C5.39894 10.4944 5.24964 12.0098 5.5404 13.4718C5.83115 14.9339 6.54891 16.2768 7.60291 17.3309L12.9327 22.6607ZM12.9327 25.7057L6.08042 18.8534C4.7252 17.4982 3.80228 15.7715 3.42838 13.8917C3.05448 12.012 3.24639 10.0636 3.97985 8.29286C4.7133 6.52216 5.95535 5.00872 7.54894 3.94392C9.14253 2.87912 11.0161 2.31079 12.9327 2.31079C14.8493 2.31079 16.7228 2.87912 18.3164 3.94392C19.91 5.00872 21.152 6.52216 21.8855 8.29286C22.6189 10.0636 22.8109 12.012 22.437 13.8917C22.0631 15.7715 21.1401 17.4982 19.7849 18.8534L12.9327 25.7057ZM12.9327 14.1546C13.5038 14.1546 14.0515 13.9277 14.4554 13.5239C14.8592 13.12 15.0861 12.5723 15.0861 12.0012C15.0861 11.4301 14.8592 10.8823 14.4554 10.4785C14.0515 10.0746 13.5038 9.84774 12.9327 9.84774C12.3615 9.84774 11.8138 10.0746 11.41 10.4785C11.0061 10.8823 10.7792 11.4301 10.7792 12.0012C10.7792 12.5723 11.0061 13.12 11.41 13.5239C11.8138 13.9277 12.3615 14.1546 12.9327 14.1546ZM12.9327 16.3081C11.7904 16.3081 10.6949 15.8543 9.88724 15.0466C9.07955 14.2389 8.62579 13.1434 8.62579 12.0012C8.62579 10.8589 9.07955 9.76346 9.88724 8.95576C10.6949 8.14806 11.7904 7.6943 12.9327 7.6943C14.0749 7.6943 15.1704 8.14806 15.9781 8.95576C16.7858 9.76346 17.2395 10.8589 17.2395 12.0012C17.2395 13.1434 16.7858 14.2389 15.9781 15.0466C15.1704 15.8543 14.0749 16.3081 12.9327 16.3081Z" fill="white" fill-opacity="0.4"/>
</g>
<defs>
<clipPath id="clip0_2274_19791">
<rect width="25.8413" height="25.8413" fill="white" transform="translate(0.015625 0.158203)"/>
</clipPath>
</defs>
</svg>
