<svg width="264" height="48" viewBox="0 0 264 48" fill="none" xmlns="http://www.w3.org/2000/svg">
<g clip-path="url(#clip0_4551_20924)">
<path d="M72.5894 38.3284C70.1785 38.3733 67.7957 37.8143 65.667 36.7042C63.6925 35.661 62.067 34.0818 60.9854 32.1559C59.8722 30.1984 59.3146 27.885 59.3125 25.2158V24.552C59.3125 21.9175 59.8701 19.6123 60.9854 17.6364C62.0586 15.6942 63.6852 14.1001 65.667 13.0483C67.8143 11.9885 70.1851 11.4364 72.5894 11.4364C74.9937 11.4364 77.3646 11.9885 79.5119 13.0483C81.4936 14.1001 83.1203 15.6942 84.1935 17.6364C85.3087 19.6123 85.8664 21.9175 85.8664 24.552V25.228C85.8664 27.8952 85.3087 30.2086 84.1935 32.1682C83.1118 34.094 81.4864 35.6732 79.5119 36.7165C77.382 37.8223 74.9993 38.3771 72.5894 38.3284ZM72.5894 34.6365C75.3484 34.6365 77.5498 33.7791 79.1936 32.0642C80.8373 30.3493 81.6602 28.0359 81.6623 25.124V24.656C81.6623 21.7442 80.8394 19.4298 79.1936 17.7128C77.5477 15.9959 75.3464 15.1384 72.5894 15.1405C69.8658 15.1405 67.6727 15.9979 66.0103 17.7128C64.3478 19.4277 63.5155 21.7421 63.5134 24.656V25.124C63.5134 28.0359 64.3457 30.3493 66.0103 32.0642C67.6748 33.7791 69.8679 34.6365 72.5894 34.6365Z" fill="white"/>
<path d="M99.0652 38.0686C97.2679 38.0868 95.493 37.6763 93.8936 36.8726C92.3197 36.0771 91.0258 34.8368 90.1795 33.3123C89.2786 31.734 88.8281 29.8193 88.8281 27.5681V12.1768H93.0072V27.2561C93.0072 29.7846 93.6522 31.6198 94.9423 32.7617C96.2323 33.9036 97.9801 34.4766 100.186 34.4807C102.664 34.4807 104.698 33.6844 106.287 32.0919C107.877 30.4993 108.673 28.1248 108.675 24.9682V12.1768H112.866V37.6006H108.775V33.2878H108.032C107.365 34.6159 106.36 35.7527 105.114 36.5882C103.734 37.5751 101.718 38.0686 99.0652 38.0686Z" fill="white"/>
<path d="M128.272 37.6004C126.786 37.6004 125.642 37.2018 124.839 36.4045C124.035 35.6072 123.638 34.5153 123.646 33.1286V15.7645H115.844V12.1766H123.646V3.12903H127.838V12.1766H136.324V15.7645H127.832V32.5077C127.832 33.5456 128.345 34.0646 129.37 34.0646H135.138V37.6004H128.272Z" fill="white"/>
<path d="M151.439 38.3285C148.22 38.3285 145.506 37.6005 143.296 36.1446C141.087 34.6886 139.751 32.3844 139.289 29.2319L143.268 28.348C143.551 30.0119 144.082 31.32 144.86 32.2723C145.606 33.2045 146.609 33.9082 147.75 34.3002C148.935 34.7086 150.183 34.9155 151.439 34.9119C153.383 34.9119 154.921 34.5306 156.055 33.768C156.583 33.4442 157.016 32.9926 157.313 32.4568C157.611 31.921 157.762 31.3192 157.753 30.7093C157.753 29.39 157.213 28.4622 156.133 27.9259C154.726 27.2888 153.236 26.8432 151.705 26.6015L149.52 26.2375C147.951 25.9856 146.419 25.5492 144.957 24.9375C143.682 24.41 142.56 23.5808 141.692 22.5242C140.84 21.4388 140.399 20.0972 140.444 18.7284C140.444 16.4405 141.346 14.6553 143.15 13.3726C144.954 12.09 147.347 11.4487 150.328 11.4487C153.262 11.4487 155.64 12.0982 157.463 13.3971C159.286 14.696 160.462 16.5251 160.993 18.8844L157.063 19.8815C156.745 18.0463 155.985 16.7545 154.782 16.0062C153.579 15.2578 152.094 14.8857 150.325 14.8898C148.554 14.8898 147.157 15.2099 146.134 15.8502C145.641 16.1442 145.239 16.5625 144.968 17.0613C144.697 17.5602 144.568 18.1212 144.595 18.6856C144.595 19.9091 145.082 20.8012 146.055 21.3619C147.266 22.0132 148.587 22.4443 149.954 22.6344L152.138 22.9983C153.828 23.2722 155.488 23.6982 157.098 24.2708C158.45 24.7321 159.657 25.53 160.6 26.5862C161.467 27.5894 161.901 28.9067 161.901 30.538C161.901 33.0319 160.954 34.9548 159.061 36.3067C157.167 37.6586 154.627 38.3326 151.439 38.3285Z" fill="white"/>
<path d="M178.16 38.3284C175.749 38.3733 173.366 37.8143 171.237 36.7042C169.263 35.661 167.637 34.0818 166.556 32.156C165.44 30.1984 164.883 27.885 164.883 25.2158V24.5521C164.883 21.9175 165.44 19.6123 166.556 17.6364C167.629 15.6942 169.256 14.1001 171.237 13.0483C173.385 11.9885 175.755 11.4364 178.16 11.4364C180.564 11.4364 182.935 11.9885 185.082 13.0483C187.064 14.1001 188.691 15.6942 189.764 17.6364C190.877 19.6123 191.435 21.9175 191.437 24.5521V25.228C191.437 27.8952 190.879 30.2086 189.764 32.1682C188.679 34.0899 187.053 35.6648 185.079 36.7042C182.951 37.8138 180.57 38.3728 178.16 38.3284ZM178.16 34.6365C180.919 34.6365 183.12 33.7791 184.764 32.0642C186.408 30.3493 187.231 28.0359 187.233 25.124V24.656C187.233 21.7442 186.41 19.4298 184.764 17.7128C183.118 15.9959 180.917 15.1384 178.16 15.1405C175.434 15.1405 173.241 15.9979 171.581 17.7128C169.92 19.4277 169.088 21.7421 169.084 24.656V25.124C169.084 28.0359 169.916 30.3493 171.581 32.0642C173.245 33.7791 175.438 34.6365 178.16 34.6365Z" fill="white"/>
<path d="M194.391 37.6005V12.1766H198.473V15.2934H199.216C199.609 14.2593 200.36 13.3933 201.338 12.8465C202.293 12.3265 203.549 12.0665 205.105 12.0665H208.17V15.8165H204.84C202.967 15.8165 201.456 16.3263 200.305 17.3458C199.154 18.3654 198.579 19.9518 198.579 22.1051V37.5974L194.391 37.6005Z" fill="white"/>
<path d="M224.368 38.3285C222.012 38.3648 219.685 37.8199 217.601 36.7441C215.619 35.698 213.981 34.1205 212.879 32.1958C211.731 30.2199 211.156 27.8749 211.156 25.1608V24.6041C211.156 21.8656 211.731 19.5206 212.879 17.5691C213.985 15.6543 215.623 14.0858 217.601 13.0453C219.685 11.9694 222.012 11.4246 224.368 11.4609C226.844 11.4609 228.957 11.9116 230.706 12.8129C232.375 13.6438 233.8 14.8788 234.845 16.4007C235.833 17.8406 236.493 19.4722 236.78 21.1845L232.695 22.0165C232.53 20.799 232.105 19.6295 231.446 18.5846C230.776 17.5311 229.834 16.67 228.715 16.0887C227.386 15.4279 225.908 15.106 224.418 15.1528C222.794 15.1256 221.191 15.5202 219.773 16.2967C218.403 17.0706 217.283 18.2069 216.54 19.5756C215.712 21.1434 215.303 22.8914 215.351 24.6561V25.1241C215.301 26.8943 215.711 28.6478 216.543 30.2199C217.287 31.5867 218.409 32.7209 219.78 33.4927C221.197 34.2705 222.8 34.6653 224.424 34.6366C227.006 34.6366 228.983 33.978 230.354 32.6607C231.717 31.3429 232.603 29.6242 232.876 27.7668L237.011 28.6508C236.611 30.3429 235.891 31.9467 234.889 33.3795C233.832 34.9005 232.4 36.1347 230.725 36.9673C228.963 37.8768 226.844 38.3305 224.368 38.3285Z" fill="white"/>
<path d="M243.41 48V44.351H258.266C259.29 44.351 259.805 43.831 259.805 42.791V33.5446H259.062C258.65 34.3489 258.102 35.0791 257.442 35.7041C256.631 36.4668 255.664 37.0517 254.605 37.42C253.188 37.8907 251.697 38.1102 250.201 38.0684C248.404 38.087 246.629 37.6766 245.03 36.8725C243.461 36.0828 242.168 34.8529 241.315 33.3397C240.412 31.7838 239.961 29.8783 239.961 27.623V12.1766H244.153V27.308C244.153 29.8039 244.799 31.6228 246.091 32.7647C247.383 33.9066 249.124 34.4786 251.315 34.4806C253.789 34.4806 255.823 33.6843 257.417 32.0918C259.011 30.4992 259.807 28.1246 259.805 24.9681V12.1766H263.996V43.5282C263.996 44.9148 263.598 46.0068 262.801 46.8041C262.004 47.6013 260.846 48 259.327 48H243.41Z" fill="white"/>
<path d="M23.526 1.63118e-06C24.1051 -0.000603459 24.6714 0.167149 25.1533 0.482036C25.6351 0.796923 26.0108 1.2448 26.2329 1.76899C26.455 2.29319 26.5134 2.87016 26.4008 3.4269C26.2882 3.98364 26.0096 4.49514 25.6003 4.89669C25.191 5.29824 24.6694 5.5718 24.1014 5.68275C23.5334 5.7937 22.9446 5.73706 22.4095 5.52C21.8744 5.30294 21.417 4.93521 21.0952 4.46333C20.7733 3.99145 20.6016 3.43663 20.6016 2.86905C20.6016 2.10866 20.9096 1.37937 21.4579 0.841407C22.0063 0.303444 22.7501 0.000812281 23.526 1.63118e-06Z" fill="white"/>
<path d="M23.526 7.45703C24.1051 7.45643 24.6714 7.62418 25.1533 7.93907C25.6351 8.25395 26.0108 8.70183 26.2329 9.22602C26.455 9.75022 26.5134 10.3272 26.4008 10.8839C26.2882 11.4407 26.0096 11.9522 25.6003 12.3537C25.191 12.7553 24.6694 13.0288 24.1014 13.1398C23.5334 13.2507 22.9446 13.1941 22.4095 12.977C21.8744 12.76 21.417 12.3922 21.0952 11.9204C20.7733 11.4485 20.6016 10.8937 20.6016 10.3261C20.6016 9.94931 20.6773 9.57623 20.8244 9.22815C20.9715 8.88006 21.1872 8.56377 21.459 8.29736C22.008 7.75931 22.7527 7.45703 23.5291 7.45703" fill="white"/>
<path d="M23.526 32.0764C24.1051 32.0758 24.6714 32.2436 25.1533 32.5585C25.6351 32.8733 26.0108 33.3212 26.2329 33.8454C26.455 34.3696 26.5134 34.9466 26.4008 35.5033C26.2882 36.0601 26.0096 36.5716 25.6003 36.9731C25.191 37.3747 24.6694 37.6482 24.1014 37.7592C23.5334 37.8701 22.9446 37.8135 22.4095 37.5964C21.8744 37.3794 21.417 37.0116 21.0952 36.5397C20.7733 36.0679 20.6016 35.513 20.6016 34.9455C20.6016 34.1845 20.91 33.4548 21.459 32.9167C22.008 32.3787 22.7527 32.0764 23.5291 32.0764" fill="white"/>
<path d="M23.526 39.457C24.1049 39.4564 24.6709 39.624 25.1526 39.9386C25.6344 40.2533 26.0101 40.7008 26.2323 41.2246C26.4545 41.7485 26.5133 42.3251 26.4012 42.8817C26.2891 43.4383 26.0112 43.9498 25.6025 44.3516C25.1938 44.7534 24.6728 45.0274 24.1052 45.139C23.5377 45.2507 22.9491 45.1949 22.4138 44.9788C21.8786 44.7627 21.4208 44.3959 21.0982 43.9248C20.7756 43.4537 20.6028 42.8995 20.6016 42.3322C20.6007 41.9552 20.6758 41.5817 20.8223 41.2331C20.9689 40.8845 21.1841 40.5676 21.4557 40.3006C21.7273 40.0336 22.05 39.8216 22.4052 39.6769C22.7604 39.5321 23.1413 39.4574 23.526 39.457Z" fill="white"/>
<path d="M14.8963 10.9011C15.4756 10.9011 16.0418 11.0696 16.5234 11.3851C17.005 11.7006 17.3802 12.1491 17.6016 12.6737C17.823 13.1983 17.8806 13.7755 17.7671 14.3322C17.6537 14.8889 17.3742 15.4001 16.9642 15.8011C16.5541 16.2021 16.0319 16.4748 15.4636 16.5849C14.8953 16.6949 14.3065 16.6372 13.7716 16.4191C13.2368 16.201 12.78 15.8323 12.4591 15.3597C12.1382 14.8871 11.9675 14.3318 11.9688 13.7641C11.9688 13.0031 12.2772 12.2734 12.8262 11.7353C13.3752 11.1973 14.1199 10.895 14.8963 10.895" fill="white"/>
<path d="M11.0604 20.276C11.6394 20.276 12.2054 20.4443 12.6868 20.7595C13.1682 21.0748 13.5435 21.5229 13.7651 22.0471C13.9866 22.5714 14.0446 23.1482 13.9316 23.7048C13.8187 24.2613 13.5399 24.7725 13.1304 25.1738C12.721 25.575 12.1994 25.8483 11.6315 25.959C11.0636 26.0697 10.475 26.0129 9.94003 25.7957C9.40509 25.5786 8.94788 25.2108 8.62619 24.739C8.30451 24.2672 8.13281 23.7125 8.13281 23.145C8.13364 22.3844 8.44234 21.6551 8.99118 21.1172C9.54002 20.5793 10.2842 20.2768 11.0604 20.276Z" fill="white"/>
<path d="M14.8963 28.7273C15.4753 28.7273 16.0413 28.8956 16.5227 29.2108C17.0042 29.5261 17.3794 29.9742 17.601 30.4984C17.8226 31.0227 17.8805 31.5995 17.7676 32.1561C17.6546 32.7126 17.3758 33.2238 16.9664 33.6251C16.557 34.0263 16.0353 34.2996 15.4674 34.4103C14.8995 34.521 14.3109 34.4642 13.776 34.247C13.241 34.0298 12.7838 33.6621 12.4621 33.1903C12.1404 32.7185 11.9688 32.1638 11.9688 31.5963C11.9688 30.8354 12.2772 30.1057 12.8262 29.5676C13.3752 29.0296 14.1199 28.7273 14.8963 28.7273Z" fill="white"/>
<path d="M9.76552 34.4164C10.2692 34.4164 10.7616 34.5628 11.1804 34.837C11.5993 35.1113 11.9257 35.5011 12.1184 35.9571C12.3112 36.4132 12.3616 36.915 12.2634 37.3992C12.1651 37.8834 11.9225 38.3281 11.5664 38.6771C11.2102 39.0262 10.7564 39.2639 10.2624 39.3602C9.76835 39.4565 9.25628 39.4071 8.79092 39.2182C8.32555 39.0293 7.9278 38.7094 7.64796 38.2989C7.36812 37.8885 7.21875 37.4059 7.21875 36.9123C7.21875 36.2503 7.48707 35.6155 7.96468 35.1474C8.4423 34.6793 9.09008 34.4164 9.76552 34.4164Z" fill="white"/>
<path d="M37.328 34.4164C37.8317 34.4164 38.3241 34.5628 38.7429 34.837C39.1618 35.1113 39.4882 35.5011 39.6809 35.9571C39.8737 36.4132 39.9241 36.915 39.8259 37.3992C39.7276 37.8834 39.485 38.3281 39.1289 38.6771C38.7727 39.0262 38.3189 39.2639 37.8249 39.3602C37.3308 39.4565 36.8188 39.4071 36.3534 39.2182C35.8881 39.0293 35.4903 38.7094 35.2105 38.2989C34.9306 37.8885 34.7813 37.4059 34.7813 36.9123C34.7812 36.2503 35.0496 35.6155 35.5272 35.1474C36.0048 34.6793 36.6526 34.4164 37.328 34.4164Z" fill="white"/>
<path d="M37.3593 5.81152C37.863 5.81152 38.3554 5.9579 38.7742 6.23216C39.193 6.50641 39.5194 6.89621 39.7122 7.35228C39.9049 7.80834 39.9554 8.31018 39.8571 8.79434C39.7588 9.27849 39.5163 9.72322 39.1601 10.0723C38.8039 10.4213 38.3501 10.659 37.8561 10.7553C37.3621 10.8517 36.85 10.8022 36.3847 10.6133C35.9193 10.4244 35.5216 10.1045 35.2417 9.69406C34.9619 9.28361 34.8125 8.80105 34.8125 8.30741C34.8125 7.64546 35.0808 7.01062 35.5584 6.54255C36.036 6.07448 36.6838 5.81152 37.3593 5.81152Z" fill="white"/>
<path d="M9.64052 5.81152C10.1442 5.81152 10.6366 5.9579 11.0554 6.23216C11.4743 6.50641 11.8007 6.89621 11.9934 7.35228C12.1862 7.80834 12.2366 8.31018 12.1384 8.79434C12.0401 9.27849 11.7975 9.72322 11.4414 10.0723C11.0852 10.4213 10.6314 10.659 10.1374 10.7553C9.64335 10.8517 9.13128 10.8022 8.66592 10.6133C8.20055 10.4244 7.8028 10.1045 7.52296 9.69406C7.24312 9.28361 7.09375 8.80105 7.09375 8.30741C7.09375 7.64546 7.36207 7.01062 7.83968 6.54255C8.3173 6.07448 8.96508 5.81152 9.64052 5.81152Z" fill="white"/>
<path d="M7.74604 27.7974C8.11998 27.798 8.48535 27.9072 8.79597 28.1112C9.10659 28.3153 9.34852 28.605 9.49119 28.9437C9.63387 29.2825 9.67088 29.6551 9.59755 30.0144C9.52422 30.3738 9.34384 30.7038 9.0792 30.9627C8.81457 31.2216 8.47756 31.3978 8.11075 31.4691C7.74395 31.5404 7.36383 31.5035 7.01841 31.3631C6.67299 31.2227 6.37778 30.9852 6.1701 30.6804C5.96241 30.3756 5.85156 30.0174 5.85156 29.6509C5.85156 29.4073 5.90059 29.166 5.99583 28.9409C6.09108 28.7158 6.23067 28.5113 6.40663 28.3392C6.58259 28.167 6.79146 28.0306 7.02129 27.9376C7.25112 27.8446 7.4974 27.797 7.74604 27.7974Z" fill="white"/>
<path d="M7.74604 14.6542C8.12047 14.6542 8.4865 14.7629 8.7979 14.9667C9.10931 15.1704 9.35213 15.46 9.4957 15.7989C9.63927 16.1378 9.67715 16.5108 9.60456 16.8708C9.53196 17.2307 9.35215 17.5616 9.08783 17.8215C8.82351 18.0814 8.48653 18.2587 8.11945 18.331C7.75237 18.4033 7.37165 18.3674 7.02537 18.2278C6.67909 18.0883 6.38279 17.8512 6.17387 17.5467C5.96496 17.2422 5.8528 16.8839 5.85157 16.5169C5.85115 16.273 5.89988 16.0314 5.99494 15.8059C6.09 15.5805 6.22953 15.3757 6.40553 15.2032C6.58153 15.0307 6.79054 14.894 7.02057 14.8008C7.2506 14.7076 7.49714 14.6599 7.74604 14.6603" fill="white"/>
<path d="M17.6835 5.60352C18.0584 5.60352 18.4248 5.71249 18.7364 5.91663C19.048 6.12077 19.2908 6.41092 19.4341 6.75035C19.5774 7.08978 19.6147 7.46324 19.5414 7.82348C19.468 8.18371 19.2873 8.51452 19.022 8.77406C18.7568 9.03359 18.4189 9.21017 18.0512 9.28146C17.6835 9.35276 17.3025 9.31555 16.9564 9.17456C16.6103 9.03357 16.3146 8.79512 16.1068 8.4894C15.899 8.18368 15.7884 7.82442 15.7891 7.45708C15.7891 7.21341 15.8381 6.97213 15.9333 6.74705C16.0286 6.52196 16.1682 6.31749 16.3441 6.14533C16.5201 5.97317 16.729 5.8367 16.9588 5.74373C17.1886 5.65076 17.4349 5.60312 17.6835 5.60352Z" fill="white"/>
<path d="M17.6835 36.4352C18.0584 36.4352 18.4248 36.5441 18.7364 36.7483C19.048 36.9524 19.2908 37.2426 19.4341 37.582C19.5774 37.9214 19.6147 38.2949 19.5414 38.6551C19.468 39.0154 19.2873 39.3462 19.022 39.6057C18.7568 39.8653 18.4189 40.0418 18.0512 40.1131C17.6835 40.1844 17.3025 40.1472 16.9564 40.0062C16.6103 39.8652 16.3146 39.6268 16.1068 39.3211C15.899 39.0153 15.7884 38.6561 15.7891 38.2887C15.7891 38.0451 15.8381 37.8038 15.9333 37.5787C16.0286 37.3536 16.1682 37.1492 16.3441 36.977C16.5201 36.8048 16.729 36.6684 16.9588 36.5754C17.1886 36.4824 17.4349 36.4348 17.6835 36.4352Z" fill="white"/>
<path d="M29.0273 5.60352C29.4021 5.60352 29.7685 5.71248 30.0801 5.91663C30.3917 6.12077 30.6346 6.41092 30.7779 6.75035C30.9212 7.08978 30.9585 7.46324 30.8851 7.82348C30.8118 8.18371 30.631 8.51452 30.3658 8.77405C30.1005 9.03358 29.7627 9.21017 29.395 9.28146C29.0273 9.35275 28.6463 9.31555 28.3001 9.17456C27.954 9.03356 27.6584 8.79512 27.4506 8.4894C27.2428 8.18368 27.1322 7.82442 27.1328 7.45708C27.1336 6.9652 27.3336 6.49375 27.6888 6.14623C28.044 5.7987 28.5254 5.60351 29.0273 5.60352Z" fill="white"/>
<path d="M29.0273 36.4352C29.4021 36.4352 29.7685 36.5441 30.0801 36.7483C30.3917 36.9524 30.6346 37.2426 30.7779 37.582C30.9212 37.9214 30.9585 38.2949 30.8851 38.6551C30.8118 39.0154 30.631 39.3462 30.3658 39.6057C30.1005 39.8652 29.7627 40.0418 29.395 40.1131C29.0273 40.1844 28.6463 40.1472 28.3001 40.0062C27.954 39.8652 27.6584 39.6268 27.4506 39.3211C27.2428 39.0153 27.1322 38.6561 27.1328 38.2887C27.1336 37.7969 27.3336 37.3254 27.6888 36.9779C28.044 36.6304 28.5254 36.4352 29.0273 36.4352Z" fill="white"/>
<path d="M39.2539 28.2195C39.6285 28.2195 39.9948 28.3284 40.3064 28.5324C40.6179 28.7364 40.8607 29.0264 41.0041 29.3656C41.1475 29.7049 41.185 30.0782 41.1119 30.4383C41.0388 30.7985 40.8584 31.1293 40.5934 31.3889C40.3285 31.6486 39.9909 31.8254 39.6234 31.8971C39.256 31.9687 38.875 31.9319 38.5289 31.7914C38.1827 31.6509 37.8868 31.4129 37.6787 31.1076C37.4705 30.8023 37.3594 30.4433 37.3594 30.0761C37.3602 29.5839 37.5601 29.1122 37.9152 28.7642C38.2703 28.4162 38.7517 28.2203 39.2539 28.2195Z" fill="white"/>
<path d="M39.2539 14.2229C39.6285 14.2229 39.9948 14.3318 40.3064 14.5358C40.6179 14.7398 40.8607 15.0298 41.0041 15.369C41.1475 15.7083 41.185 16.0816 41.1119 16.4417C41.0388 16.8019 40.8584 17.1327 40.5934 17.3924C40.3285 17.652 39.9909 17.8288 39.6234 17.9005C39.256 17.9721 38.875 17.9353 38.5289 17.7948C38.1827 17.6543 37.8868 17.4163 37.6787 17.111C37.4705 16.8057 37.3594 16.4467 37.3594 16.0795C37.3594 15.5871 37.559 15.1149 37.9143 14.7667C38.2695 14.4185 38.7514 14.2229 39.2539 14.2229Z" fill="white"/>
<path d="M2.92754 20.276C3.50656 20.276 4.07257 20.4443 4.554 20.7595C5.03543 21.0748 5.41066 21.5229 5.63224 22.0471C5.85382 22.5714 5.91179 23.1482 5.79883 23.7048C5.68587 24.2613 5.40705 24.7725 4.99763 25.1738C4.5882 25.575 4.06657 25.8483 3.49868 25.959C2.93079 26.0697 2.34216 26.0129 1.80722 25.7957C1.27228 25.5786 0.815062 25.2108 0.49338 24.739C0.171697 24.2672 0 23.7125 0 23.145C0 22.3841 0.308437 21.6544 0.857457 21.1163C1.40648 20.5783 2.15111 20.276 2.92754 20.276Z" fill="white"/>
<path d="M31.951 10.9011C31.3717 10.9011 30.8054 11.0696 30.3239 11.3851C29.8423 11.7006 29.4671 12.1491 29.2457 12.6737C29.0243 13.1983 28.9667 13.7755 29.0801 14.3322C29.1936 14.8889 29.4731 15.4001 29.8831 15.8011C30.2932 16.2021 30.8154 16.4748 31.3837 16.5849C31.952 16.6949 32.5408 16.6372 33.0756 16.4191C33.6105 16.201 34.0672 15.8323 34.3882 15.3597C34.7091 14.8871 34.8798 14.3318 34.8785 13.7641C34.8785 13.0031 34.5701 12.2734 34.0211 11.7353C33.472 11.1973 32.7274 10.895 31.951 10.895" fill="white"/>
<path d="M36.326 20.276C35.747 20.276 35.181 20.4443 34.6995 20.7595C34.2181 21.0748 33.8429 21.5229 33.6213 22.0471C33.3997 22.5714 33.3417 23.1482 33.4547 23.7048C33.5677 24.2613 33.8465 24.7725 34.2559 25.1738C34.6653 25.575 35.187 25.8483 35.7548 25.959C36.3227 26.0697 36.9114 26.0129 37.4463 25.7957C37.9812 25.5786 38.4385 25.2108 38.7601 24.739C39.0818 24.2672 39.2535 23.7125 39.2535 23.145C39.2527 22.3844 38.944 21.6551 38.3952 21.1172C37.8463 20.5793 37.1022 20.2768 36.326 20.276Z" fill="white"/>
<path d="M31.951 28.7273C31.372 28.7273 30.806 28.8956 30.3245 29.2108C29.8431 29.5261 29.4679 29.9742 29.2463 30.4984C29.0247 31.0227 28.9667 31.5995 29.0797 32.1561C29.1927 32.7126 29.4715 33.2238 29.8809 33.6251C30.2903 34.0263 30.812 34.2996 31.3798 34.4103C31.9477 34.521 32.5364 34.4642 33.0713 34.247C33.6062 34.0298 34.0635 33.6621 34.3851 33.1903C34.7068 32.7185 34.8785 32.1638 34.8785 31.5963C34.8785 30.8354 34.5701 30.1057 34.0211 29.5676C33.472 29.0296 32.7274 28.7273 31.951 28.7273Z" fill="white"/>
<path d="M44.076 20.276C43.497 20.276 42.931 20.4443 42.4495 20.7595C41.9681 21.0748 41.5929 21.5229 41.3713 22.0471C41.1497 22.5714 41.0917 23.1482 41.2047 23.7048C41.3176 24.2613 41.5965 24.7725 42.0059 25.1738C42.4153 25.575 42.937 25.8483 43.5048 25.959C44.0727 26.0697 44.6614 26.0129 45.1963 25.7957C45.7312 25.5786 46.1885 25.2108 46.5101 24.739C46.8318 24.2672 47.0035 23.7125 47.0035 23.145C47.0035 22.3841 46.6951 21.6544 46.1461 21.1163C45.597 20.5783 44.8524 20.276 44.076 20.276Z" fill="white"/>
<path d="M44.076 20.276C43.497 20.276 42.931 20.4443 42.4495 20.7595C41.9681 21.0748 41.5929 21.5229 41.3713 22.0471C41.1497 22.5714 41.0917 23.1482 41.2047 23.7048C41.3176 24.2613 41.5965 24.7725 42.0059 25.1738C42.4153 25.575 42.937 25.8483 43.5048 25.959C44.0727 26.0697 44.6614 26.0129 45.1963 25.7957C45.7312 25.5786 46.1885 25.2108 46.5101 24.739C46.8318 24.2672 47.0035 23.7125 47.0035 23.145C47.0035 22.3841 46.6951 21.6544 46.1461 21.1163C45.597 20.5783 44.8524 20.276 44.076 20.276Z" fill="white"/>
<path d="M44.076 20.276C43.497 20.276 42.931 20.4443 42.4495 20.7595C41.9681 21.0748 41.5929 21.5229 41.3713 22.0471C41.1497 22.5714 41.0917 23.1482 41.2047 23.7048C41.3176 24.2613 41.5965 24.7725 42.0059 25.1738C42.4153 25.575 42.937 25.8483 43.5048 25.959C44.0727 26.0697 44.6614 26.0129 45.1963 25.7957C45.7312 25.5786 46.1885 25.2108 46.5101 24.739C46.8318 24.2672 47.0035 23.7125 47.0035 23.145C47.0035 22.3841 46.6951 21.6544 46.1461 21.1163C45.597 20.5783 44.8524 20.276 44.076 20.276Z" fill="white"/>
</g>
<defs>
<clipPath id="clip0_4551_20924">
<rect width="264" height="48" fill="white"/>
</clipPath>
</defs>
</svg>
