<svg width="187" height="34" viewBox="0 0 187 34" fill="none" xmlns="http://www.w3.org/2000/svg">
<g clip-path="url(#clip0_4551_19902)">
<path d="M51.4201 27.1493C49.7124 27.1812 48.0246 26.7852 46.5167 25.9989C45.1181 25.2599 43.9667 24.1413 43.2006 22.7772C42.4121 21.3906 42.0171 19.7519 42.0156 17.8612V17.3911C42.0156 15.5249 42.4106 13.8921 43.2006 12.4925C43.9608 11.1168 45.113 9.98762 46.5167 9.24261C48.0377 8.49187 49.7171 8.10083 51.4201 8.10083C53.1232 8.10083 54.8025 8.49187 56.3235 9.24261C57.7273 9.98762 58.8795 11.1168 59.6397 12.4925C60.4296 13.8921 60.8246 15.5249 60.8246 17.3911V17.8699C60.8246 19.7591 60.4296 21.3978 59.6397 22.7858C58.8735 24.15 57.7221 25.2686 56.3235 26.0075C54.8148 26.7908 53.1271 27.1838 51.4201 27.1493ZM51.4201 24.5343C53.3744 24.5343 54.9337 23.9269 56.098 22.7122C57.2624 21.4975 57.8453 19.8588 57.8467 17.7962V17.4647C57.8467 15.4022 57.2638 13.7628 56.098 12.5466C54.9323 11.3305 53.3729 10.7231 51.4201 10.7245C49.4909 10.7245 47.9375 11.3319 46.7599 12.5466C45.5823 13.7614 44.9928 15.4007 44.9913 17.4647V17.7962C44.9913 19.8588 45.5808 21.4975 46.7599 22.7122C47.9389 23.9269 49.4924 24.5343 51.4201 24.5343Z" fill="white"/>
<path d="M70.1731 26.9652C68.9 26.9781 67.6428 26.6874 66.5099 26.1181C65.3951 25.5546 64.4786 24.676 63.8791 23.5962C63.241 22.4782 62.9219 21.122 62.9219 19.5274V8.62518H65.8821V19.3064C65.8821 21.0974 66.339 22.3974 67.2527 23.2062C68.1665 24.0151 69.4045 24.4209 70.9668 24.4238C72.7221 24.4238 74.1628 23.8598 75.2888 22.7317C76.4148 21.6037 76.9785 19.9217 76.98 17.6858V8.62518H79.949V26.6337H77.0507V23.5789H76.5246C76.0525 24.5196 75.3405 25.3248 74.4575 25.9166C73.4804 26.6157 72.0522 26.9652 70.1731 26.9652Z" fill="white"/>
<path d="M90.8579 26.6337C89.8055 26.6337 88.9949 26.3513 88.426 25.7866C87.8571 25.2218 87.5756 24.4483 87.5815 23.4662V11.1665H82.0547V8.62515H87.5815V2.21643H90.5506V8.62515H96.5616V11.1665H90.5461V23.0263C90.5461 23.7615 90.9094 24.1291 91.636 24.1291H95.7215V26.6337H90.8579Z" fill="white"/>
<path d="M107.27 27.1493C104.99 27.1493 103.068 26.6337 101.503 25.6024C99.9375 24.5711 98.9913 22.939 98.6641 20.7059L101.483 20.0798C101.683 21.2584 102.059 22.185 102.61 22.8595C103.139 23.5199 103.849 24.0183 104.657 24.2959C105.497 24.5853 106.381 24.7318 107.27 24.7293C108.647 24.7293 109.737 24.4592 110.54 23.919C110.914 23.6896 111.221 23.3697 111.431 22.9902C111.642 22.6107 111.749 22.1844 111.743 21.7524C111.743 20.8179 111.36 20.1607 110.595 19.7808C109.598 19.3295 108.543 19.0139 107.458 18.8427L105.911 18.5849C104.8 18.4065 103.714 18.0973 102.679 17.6641C101.776 17.2904 100.981 16.7031 100.366 15.9547C99.7627 15.1858 99.4502 14.2355 99.482 13.2659C99.482 11.6453 100.121 10.3808 101.399 9.47227C102.677 8.56376 104.371 8.1095 106.483 8.1095C108.562 8.1095 110.246 8.56953 111.537 9.4896C112.828 10.4097 113.662 11.7053 114.038 13.3764L111.254 14.0827C111.029 12.7828 110.49 11.8678 109.638 11.3377C108.786 10.8076 107.734 10.544 106.481 10.5469C105.227 10.5469 104.237 10.7737 103.512 11.2272C103.163 11.4354 102.878 11.7317 102.687 12.0851C102.495 12.4384 102.404 12.8358 102.422 13.2356C102.422 14.1022 102.767 14.7341 103.457 15.1314C104.314 15.5927 105.25 15.8981 106.218 16.0326L107.766 16.2905C108.962 16.4845 110.138 16.7862 111.279 17.1918C112.236 17.5186 113.091 18.0837 113.759 18.8319C114.374 19.5425 114.681 20.4756 114.681 21.6311C114.681 23.3975 114.01 24.7596 112.669 25.7172C111.328 26.6748 109.528 27.1522 107.27 27.1493Z" fill="white"/>
<path d="M126.194 27.1493C124.486 27.1811 122.798 26.7851 121.29 25.9988C119.892 25.2599 118.74 24.1413 117.974 22.7771C117.184 21.3905 116.789 19.7519 116.789 17.8612V17.391C116.789 15.5249 117.184 13.892 117.974 12.4924C118.734 11.1167 119.886 9.98756 121.29 9.24255C122.811 8.49181 124.491 8.10077 126.194 8.10077C127.897 8.10077 129.576 8.49181 131.097 9.24255C132.501 9.98756 133.653 11.1167 134.413 12.4924C135.202 13.892 135.597 15.5249 135.598 17.391V17.8698C135.598 19.7591 135.203 21.3977 134.413 22.7858C133.645 24.147 132.493 25.2625 131.095 25.9988C129.588 26.7848 127.901 27.1807 126.194 27.1493ZM126.194 24.5342C128.148 24.5342 129.707 23.9268 130.871 22.7121C132.036 21.4974 132.619 19.8587 132.62 17.7962V17.4647C132.62 15.4021 132.037 13.7627 130.871 12.5466C129.706 11.3304 128.146 10.723 126.194 10.7245C124.263 10.7245 122.709 11.3318 121.533 12.5466C120.357 13.7613 119.768 15.4007 119.765 17.4647V17.7962C119.765 19.8587 120.354 21.4974 121.533 22.7121C122.712 23.9268 124.266 24.5342 126.194 24.5342Z" fill="white"/>
<path d="M137.695 26.6337V8.62512H140.587V10.8329H141.113C141.392 10.1004 141.924 9.48693 142.616 9.09959C143.293 8.73128 144.182 8.54712 145.285 8.54712H147.456V11.2033H145.097C143.77 11.2033 142.7 11.5644 141.885 12.2866C141.07 13.0088 140.662 14.1325 140.662 15.6578V26.6315L137.695 26.6337Z" fill="white"/>
<path d="M158.928 27.1493C157.26 27.1751 155.612 26.7891 154.135 26.027C152.731 25.2861 151.571 24.1686 150.791 22.8053C149.977 21.4057 149.57 19.7447 149.57 17.8222V17.4279C149.57 15.4881 149.977 13.8271 150.791 12.4448C151.574 11.0885 152.734 9.97746 154.135 9.24044C155.612 8.47835 157.26 8.09241 158.928 8.11815C160.682 8.11815 162.179 8.43736 163.418 9.07578C164.601 9.66432 165.61 10.5391 166.35 11.6172C167.05 12.6371 167.517 13.7928 167.72 15.0057L164.827 15.595C164.71 14.7326 164.409 13.9042 163.942 13.1641C163.468 12.4179 162.801 11.8079 162.008 11.3962C161.066 10.9281 160.019 10.7001 158.964 10.7332C157.813 10.7139 156.678 10.9935 155.674 11.5435C154.703 12.0917 153.91 12.8966 153.384 13.8661C152.797 14.9766 152.507 16.2147 152.542 17.4647V17.7962C152.506 19.0501 152.797 20.2922 153.386 21.4057C153.913 22.3739 154.708 23.1773 155.679 23.724C156.682 24.2749 157.818 24.5546 158.968 24.5343C160.797 24.5343 162.197 24.0677 163.169 23.1347C164.134 22.2012 164.762 20.9838 164.955 19.6681L167.884 20.2943C167.6 21.4929 167.091 22.6289 166.381 23.6438C165.632 24.7212 164.618 25.5954 163.432 26.1852C162.183 26.8294 160.682 27.1508 158.928 27.1493Z" fill="white"/>
<path d="M172.419 34V31.4153H182.943C183.668 31.4153 184.032 31.047 184.032 30.3103V23.7608H183.506C183.215 24.3305 182.827 24.8477 182.359 25.2904C181.785 25.8307 181.1 26.245 180.349 26.5058C179.346 26.8392 178.289 26.9948 177.23 26.9651C175.957 26.9783 174.7 26.6876 173.567 26.118C172.456 25.5586 171.54 24.6874 170.936 23.6156C170.296 22.5136 169.977 21.1638 169.977 19.5663V8.62512H172.946V19.3431C172.946 21.1111 173.403 22.3995 174.318 23.2083C175.234 24.0172 176.467 24.4223 178.019 24.4238C179.772 24.4238 181.212 23.8597 182.341 22.7317C183.47 21.6036 184.034 19.9216 184.032 17.6857V8.62512H187.001V30.8325C187.001 31.8147 186.719 32.5881 186.155 33.1529C185.59 33.7176 184.77 34 183.694 34H172.419Z" fill="white"/>
<path d="M16.6652 1.15542e-06C17.0754 -0.00042745 17.4766 0.118397 17.8179 0.341442C18.1592 0.564487 18.4253 0.88173 18.5826 1.25304C18.7399 1.62434 18.7813 2.03303 18.7015 2.42739C18.6218 2.82175 18.4244 3.18406 18.1345 3.46849C17.8446 3.75292 17.4751 3.94669 17.0728 4.02528C16.6705 4.10387 16.2534 4.06375 15.8744 3.91C15.4953 3.75625 15.1713 3.49577 14.9434 3.16152C14.7154 2.82728 14.5938 2.43428 14.5938 2.03224C14.5937 1.49364 14.8119 0.977054 15.2003 0.595997C15.5887 0.21494 16.1156 0.000575366 16.6652 1.15542e-06Z" fill="white"/>
<path d="M16.6652 5.28211C17.0754 5.28168 17.4766 5.4005 17.8179 5.62355C18.1592 5.84659 18.4253 6.16383 18.5826 6.53514C18.7399 6.90645 18.7813 7.31513 18.7015 7.70949C18.6218 8.10385 18.4244 8.46616 18.1345 8.75059C17.8446 9.03503 17.4751 9.22879 17.0728 9.30738C16.6705 9.38597 16.2534 9.34586 15.8744 9.1921C15.4953 9.03835 15.1713 8.77788 14.9434 8.44363C14.7154 8.10938 14.5938 7.71638 14.5938 7.31435C14.5938 7.04747 14.6474 6.78321 14.7516 6.53664C14.8558 6.29008 15.0086 6.06605 15.2011 5.87734C15.59 5.49622 16.1175 5.28211 16.6674 5.28211" fill="white"/>
<path d="M16.6652 22.7208C17.0754 22.7204 17.4766 22.8392 17.8179 23.0623C18.1592 23.2853 18.4253 23.6026 18.5826 23.9739C18.7399 24.3452 18.7813 24.7539 18.7015 25.1482C18.6218 25.5426 18.4244 25.9049 18.1345 26.1893C17.8446 26.4737 17.4751 26.6675 17.0728 26.7461C16.6705 26.8247 16.2534 26.7846 15.8744 26.6308C15.4953 26.4771 15.1713 26.2166 14.9434 25.8823C14.7154 25.5481 14.5938 25.1551 14.5938 24.7531C14.5938 24.2141 14.8122 23.6972 15.2011 23.3161C15.59 22.9349 16.1175 22.7208 16.6674 22.7208" fill="white"/>
<path d="M16.6652 27.9488C17.0753 27.9484 17.4762 28.0671 17.8174 28.2899C18.1586 28.5128 18.4248 28.8298 18.5822 29.2008C18.7396 29.5719 18.7813 29.9803 18.7018 30.3746C18.6224 30.7688 18.4256 31.1311 18.1361 31.4157C17.8466 31.7004 17.4775 31.8945 17.0755 31.9735C16.6735 32.0526 16.2566 32.0131 15.8774 31.86C15.4983 31.7069 15.174 31.4471 14.9455 31.1135C14.717 30.7798 14.5946 30.3872 14.5938 29.9854C14.5932 29.7183 14.6463 29.4538 14.7501 29.2068C14.8539 28.9599 15.0064 28.7355 15.1988 28.5463C15.3912 28.3572 15.6197 28.2071 15.8713 28.1045C16.1229 28.002 16.3927 27.9491 16.6652 27.9488Z" fill="white"/>
<path d="M10.5502 7.72168C10.9606 7.72168 11.3617 7.84098 11.7028 8.06448C12.0439 8.28798 12.3097 8.60562 12.4665 8.97722C12.6233 9.34882 12.6641 9.75766 12.5837 10.152C12.5034 10.5463 12.3054 10.9084 12.015 11.1925C11.7245 11.4765 11.3546 11.6697 10.9521 11.7476C10.5495 11.8256 10.1325 11.7847 9.75361 11.6302C9.37478 11.4757 9.05122 11.2146 8.82389 10.8798C8.59657 10.5451 8.47569 10.1517 8.47657 9.74959C8.47657 9.21061 8.69504 8.6937 9.08393 8.31258C9.47282 7.93146 10.0003 7.71735 10.5502 7.71735" fill="white"/>
<path d="M7.8393 14.3622C8.24944 14.3622 8.65036 14.4814 8.99137 14.7047C9.33239 14.928 9.59818 15.2454 9.75513 15.6167C9.91208 15.9881 9.95314 16.3967 9.87313 16.7909C9.79312 17.1851 9.59562 17.5472 9.30561 17.8314C9.0156 18.1157 8.64611 18.3092 8.24385 18.3876C7.8416 18.466 7.42465 18.4258 7.04574 18.272C6.66682 18.1182 6.34296 17.8577 6.1151 17.5235C5.88724 17.1893 5.76562 16.7964 5.76562 16.3944C5.76621 15.8556 5.98487 15.339 6.37364 14.958C6.7624 14.5771 7.28951 14.3628 7.8393 14.3622Z" fill="white"/>
<path d="M10.5502 20.3485C10.9604 20.3485 11.3613 20.4677 11.7023 20.691C12.0433 20.9143 12.3091 21.2317 12.4661 21.603C12.623 21.9744 12.6641 22.383 12.5841 22.7772C12.5041 23.1714 12.3066 23.5336 12.0165 23.8178C11.7265 24.102 11.357 24.2955 10.9548 24.3739C10.5525 24.4524 10.1356 24.4121 9.75668 24.2583C9.37776 24.1045 9.0539 23.844 8.82604 23.5098C8.59818 23.1756 8.47656 22.7827 8.47656 22.3808C8.47656 21.8418 8.69504 21.3249 9.08393 20.9437C9.47282 20.5626 10.0003 20.3485 10.5502 20.3485Z" fill="white"/>
<path d="M6.91334 24.3783C7.27013 24.3783 7.61891 24.482 7.91557 24.6762C8.21223 24.8705 8.44345 25.1466 8.57999 25.4697C8.71652 25.7927 8.75225 26.1482 8.68264 26.4911C8.61304 26.8341 8.44122 27.1491 8.18894 27.3963C7.93665 27.6436 7.61521 27.812 7.26528 27.8802C6.91534 27.9484 6.55262 27.9134 6.22299 27.7796C5.89336 27.6458 5.61162 27.4192 5.4134 27.1284C5.21518 26.8377 5.10938 26.4959 5.10938 26.1462C5.10938 25.6773 5.29943 25.2277 5.63774 24.8961C5.97605 24.5646 6.4349 24.3783 6.91334 24.3783Z" fill="white"/>
<path d="M26.4368 24.3783C26.7936 24.3783 27.1423 24.482 27.439 24.6762C27.7357 24.8705 27.9669 25.1466 28.1034 25.4697C28.24 25.7927 28.2757 26.1482 28.2061 26.4911C28.1365 26.8341 27.9647 27.1491 27.7124 27.3963C27.4601 27.6436 27.1386 27.812 26.7887 27.8802C26.4388 27.9484 26.0761 27.9134 25.7464 27.7796C25.4168 27.6458 25.1351 27.4192 24.9368 27.1284C24.7386 26.8377 24.6328 26.4959 24.6328 26.1462C24.6328 25.6773 24.8229 25.2277 25.1612 24.8961C25.4995 24.5646 25.9583 24.3783 26.4368 24.3783Z" fill="white"/>
<path d="M26.468 4.11652C26.8248 4.11652 27.1736 4.2202 27.4703 4.41446C27.7669 4.60873 27.9981 4.88484 28.1347 5.20788C28.2712 5.53093 28.3069 5.8864 28.2373 6.22934C28.1677 6.57229 27.9959 6.8873 27.7436 7.13455C27.4913 7.3818 27.1699 7.55017 26.82 7.61839C26.47 7.68661 26.1073 7.6516 25.7777 7.51779C25.448 7.38398 25.1663 7.15738 24.9681 6.86664C24.7699 6.57591 24.6641 6.2341 24.6641 5.88444C24.6641 5.41556 24.8541 4.96588 25.1924 4.63433C25.5307 4.30278 25.9896 4.11652 26.468 4.11652Z" fill="white"/>
<path d="M6.8274 4.11652C7.18419 4.11652 7.53297 4.2202 7.82963 4.41446C8.12629 4.60873 8.35751 4.88484 8.49405 5.20788C8.63059 5.53093 8.66631 5.8864 8.5967 6.22934C8.5271 6.57229 8.35529 6.8873 8.103 7.13455C7.85071 7.3818 7.52927 7.55017 7.17934 7.61839C6.8294 7.68661 6.46669 7.6516 6.13706 7.51779C5.80742 7.38398 5.52568 7.15738 5.32746 6.86664C5.12924 6.57591 5.02344 6.2341 5.02344 5.88444C5.02344 5.41556 5.2135 4.96588 5.55181 4.63433C5.89012 4.30278 6.34896 4.11652 6.8274 4.11652Z" fill="white"/>
<path d="M5.49036 19.6898C5.75523 19.6902 6.01403 19.7676 6.23406 19.9121C6.45408 20.0566 6.62545 20.2618 6.72651 20.5018C6.82757 20.7417 6.85379 21.0056 6.80184 21.2602C6.7499 21.5147 6.62213 21.7485 6.43468 21.9319C6.24723 22.1153 6.00852 22.2401 5.7487 22.2906C5.48888 22.3411 5.21962 22.3149 4.97495 22.2155C4.73028 22.1161 4.52118 21.9478 4.37407 21.7319C4.22695 21.516 4.14844 21.2623 4.14844 21.0027C4.14844 20.8301 4.18316 20.6592 4.25063 20.4998C4.31809 20.3403 4.41697 20.1955 4.54161 20.0735C4.66625 19.9516 4.8142 19.8549 4.97699 19.7891C5.13979 19.7232 5.31424 19.6895 5.49036 19.6898Z" fill="white"/>
<path d="M5.49036 10.38C5.75558 10.38 6.01485 10.457 6.23543 10.6013C6.45601 10.7457 6.62801 10.9508 6.7297 11.1908C6.8314 11.4309 6.85823 11.6951 6.80681 11.9501C6.75539 12.2051 6.62802 12.4394 6.44079 12.6235C6.25356 12.8076 6.01487 12.9332 5.75486 12.9844C5.49484 13.0357 5.22516 13.0102 4.97989 12.9114C4.73461 12.8125 4.52472 12.6446 4.37674 12.4289C4.22876 12.2132 4.14931 11.9594 4.14844 11.6994C4.14815 11.5267 4.18266 11.3555 4.24999 11.1958C4.31733 11.0362 4.41616 10.8911 4.54083 10.7689C4.6655 10.6467 4.81354 10.5499 4.97648 10.4839C5.13943 10.4179 5.31405 10.3841 5.49036 10.3843" fill="white"/>
<path d="M12.5294 3.96918C12.7949 3.96918 13.0545 4.04636 13.2752 4.19097C13.4959 4.33557 13.6679 4.54109 13.7694 4.78152C13.8709 5.02195 13.8974 5.28649 13.8454 5.54165C13.7934 5.79682 13.6654 6.03114 13.4775 6.21498C13.2896 6.39881 13.0503 6.52389 12.7899 6.57439C12.5294 6.62489 12.2595 6.59854 12.0144 6.49867C11.7692 6.3988 11.5598 6.2299 11.4126 6.01335C11.2654 5.79679 11.1871 5.54232 11.1875 5.28212C11.1875 5.10952 11.2222 4.93861 11.2897 4.77918C11.3572 4.61974 11.456 4.47491 11.5807 4.35296C11.7053 4.23102 11.8533 4.13435 12.0161 4.0685C12.1789 4.00264 12.3533 3.96889 12.5294 3.96918Z" fill="white"/>
<path d="M12.5294 25.8082C12.7949 25.8082 13.0545 25.8854 13.2752 26.03C13.4959 26.1746 13.6679 26.3801 13.7694 26.6206C13.8709 26.861 13.8974 27.1255 13.8454 27.3807C13.7934 27.6359 13.6654 27.8702 13.4775 28.054C13.2896 28.2379 13.0503 28.3629 12.7899 28.4134C12.5294 28.4639 12.2595 28.4376 12.0144 28.3377C11.7692 28.2378 11.5598 28.069 11.4126 27.8524C11.2654 27.6358 11.1871 27.3814 11.1875 27.1212C11.1875 26.9486 11.2222 26.7777 11.2897 26.6182C11.3572 26.4588 11.456 26.314 11.5807 26.192C11.7053 26.0701 11.8533 25.9734 12.0161 25.9075C12.1789 25.8417 12.3533 25.8079 12.5294 25.8082Z" fill="white"/>
<path d="M20.5607 3.96918C20.8262 3.96918 21.0857 4.04636 21.3064 4.19096C21.5272 4.33557 21.6992 4.54109 21.8007 4.78152C21.9022 5.02195 21.9286 5.28648 21.8766 5.54165C21.8247 5.79681 21.6967 6.03114 21.5088 6.21497C21.3209 6.39881 21.0816 6.52389 20.8211 6.57439C20.5607 6.62489 20.2908 6.59854 20.0456 6.49867C19.8004 6.3988 19.591 6.2299 19.4438 6.01334C19.2966 5.79679 19.2183 5.54232 19.2188 5.28212C19.2193 4.93371 19.361 4.59976 19.6126 4.3536C19.8642 4.10743 20.2052 3.96918 20.5607 3.96918Z" fill="white"/>
<path d="M20.5607 25.8082C20.8262 25.8082 21.0857 25.8854 21.3064 26.03C21.5272 26.1746 21.6992 26.3801 21.8007 26.6206C21.9022 26.861 21.9286 27.1255 21.8766 27.3807C21.8247 27.6359 21.6967 27.8702 21.5088 28.054C21.3209 28.2379 21.0816 28.3629 20.8211 28.4134C20.5607 28.4639 20.2908 28.4376 20.0456 28.3377C19.8004 28.2378 19.591 28.0689 19.4438 27.8524C19.2966 27.6358 19.2183 27.3814 19.2188 27.1212C19.2193 26.7728 19.361 26.4388 19.6126 26.1926C19.8642 25.9465 20.2052 25.8082 20.5607 25.8082Z" fill="white"/>
<path d="M27.8029 19.9888C28.0683 19.9888 28.3277 20.066 28.5484 20.2105C28.7691 20.355 28.9411 20.5604 29.0426 20.8007C29.1442 21.041 29.1708 21.3054 29.119 21.5605C29.0672 21.8156 28.9394 22.0499 28.7517 22.2339C28.5641 22.4178 28.325 22.543 28.0647 22.5938C27.8043 22.6445 27.5345 22.6185 27.2893 22.5189C27.0441 22.4194 26.8345 22.2508 26.6871 22.0346C26.5396 21.8183 26.4609 21.564 26.4609 21.3039C26.4615 20.9553 26.6031 20.6212 26.8546 20.3746C27.1062 20.1281 27.4471 19.9894 27.8029 19.9888Z" fill="white"/>
<path d="M27.8029 10.0745C28.0683 10.0745 28.3277 10.1517 28.5484 10.2962C28.7691 10.4407 28.9411 10.6461 29.0426 10.8864C29.1442 11.1267 29.1708 11.3911 29.119 11.6462C29.0672 11.9013 28.9394 12.1356 28.7517 12.3196C28.5641 12.5035 28.325 12.6287 28.0647 12.6795C27.8043 12.7302 27.5345 12.7042 27.2893 12.6046C27.0441 12.5051 26.8345 12.3365 26.6871 12.1203C26.5396 11.904 26.4609 11.6497 26.4609 11.3896C26.4609 11.0408 26.6023 10.7063 26.854 10.4597C27.1056 10.2131 27.447 10.0745 27.8029 10.0745Z" fill="white"/>
<path d="M2.07368 14.3622C2.48381 14.3622 2.88473 14.4814 3.22575 14.7047C3.56676 14.928 3.83255 15.2454 3.9895 15.6167C4.14645 15.9881 4.18752 16.3967 4.10751 16.7909C4.02749 17.1851 3.82999 17.5472 3.53999 17.8314C3.24998 18.1157 2.88048 18.3092 2.47823 18.3876C2.07598 18.466 1.65903 18.4258 1.28011 18.272C0.9012 18.1182 0.577336 17.8577 0.349477 17.5235C0.121619 17.1893 0 16.7964 0 16.3944C0 15.8554 0.218476 15.3385 0.607365 14.9574C0.996255 14.5763 1.5237 14.3622 2.07368 14.3622Z" fill="white"/>
<path d="M22.6362 7.72168C22.2258 7.72168 21.8248 7.84098 21.4836 8.06448C21.1425 8.28798 20.8767 8.60562 20.7199 8.97722C20.5631 9.34882 20.5223 9.75766 20.6027 10.152C20.683 10.5463 20.881 10.9084 21.1714 11.1925C21.4619 11.4765 21.8318 11.6697 22.2343 11.7476C22.6369 11.8256 23.054 11.7847 23.4328 11.6302C23.8116 11.4757 24.1352 11.2146 24.3625 10.8798C24.5898 10.5451 24.7107 10.1517 24.7098 9.74959C24.7098 9.21061 24.4914 8.6937 24.1025 8.31258C23.7136 7.93146 23.1861 7.71735 22.6362 7.71735" fill="white"/>
<path d="M25.7299 14.3622C25.3198 14.3622 24.9189 14.4814 24.5779 14.7047C24.2368 14.928 23.9711 15.2454 23.8141 15.6167C23.6571 15.9881 23.6161 16.3967 23.6961 16.7909C23.7761 17.1851 23.9736 17.5472 24.2636 17.8314C24.5536 18.1157 24.9231 18.3092 25.3254 18.3876C25.7276 18.466 26.1446 18.4258 26.5235 18.272C26.9024 18.1182 27.2263 17.8577 27.4541 17.5235C27.682 17.1893 27.8036 16.7964 27.8036 16.3944C27.803 15.8556 27.5844 15.339 27.1956 14.958C26.8068 14.5771 26.2797 14.3628 25.7299 14.3622Z" fill="white"/>
<path d="M22.6362 20.3485C22.226 20.3485 21.8251 20.4677 21.4841 20.691C21.1431 20.9143 20.8773 21.2317 20.7203 21.603C20.5634 21.9744 20.5223 22.383 20.6023 22.7772C20.6824 23.1714 20.8799 23.5336 21.1699 23.8178C21.4599 24.102 21.8294 24.2955 22.2316 24.3739C22.6339 24.4524 23.0508 24.4121 23.4297 24.2583C23.8087 24.1045 24.1325 23.844 24.3604 23.5098C24.5882 23.1756 24.7099 22.7827 24.7099 22.3808C24.7099 21.8418 24.4914 21.3249 24.1025 20.9437C23.7136 20.5626 23.1861 20.3485 22.6362 20.3485Z" fill="white"/>
<path d="M31.2221 14.3622C30.812 14.3622 30.4111 14.4814 30.07 14.7047C29.729 14.928 29.4632 15.2454 29.3063 15.6167C29.1493 15.9881 29.1083 16.3967 29.1883 16.7909C29.2683 17.1851 29.4658 17.5472 29.7558 17.8314C30.0458 18.1157 30.4153 18.3092 30.8176 18.3876C31.2198 18.466 31.6368 18.4258 32.0157 18.272C32.3946 18.1182 32.7185 17.8577 32.9463 17.5235C33.1742 17.1893 33.2958 16.7964 33.2958 16.3944C33.2958 15.8554 33.0773 15.3385 32.6884 14.9574C32.2995 14.5763 31.7721 14.3622 31.2221 14.3622Z" fill="white"/>
<path d="M31.2221 14.3622C30.812 14.3622 30.4111 14.4814 30.07 14.7047C29.729 14.928 29.4632 15.2454 29.3063 15.6167C29.1493 15.9881 29.1083 16.3967 29.1883 16.7909C29.2683 17.1851 29.4658 17.5472 29.7558 17.8314C30.0458 18.1157 30.4153 18.3092 30.8176 18.3876C31.2198 18.466 31.6368 18.4258 32.0157 18.272C32.3946 18.1182 32.7185 17.8577 32.9463 17.5235C33.1742 17.1893 33.2958 16.7964 33.2958 16.3944C33.2958 15.8554 33.0773 15.3385 32.6884 14.9574C32.2995 14.5763 31.7721 14.3622 31.2221 14.3622Z" fill="white"/>
<path d="M31.2221 14.3622C30.812 14.3622 30.4111 14.4814 30.07 14.7047C29.729 14.928 29.4632 15.2454 29.3063 15.6167C29.1493 15.9881 29.1083 16.3967 29.1883 16.7909C29.2683 17.1851 29.4658 17.5472 29.7558 17.8314C30.0458 18.1157 30.4153 18.3092 30.8176 18.3876C31.2198 18.466 31.6368 18.4258 32.0157 18.272C32.3946 18.1182 32.7185 17.8577 32.9463 17.5235C33.1742 17.1893 33.2958 16.7964 33.2958 16.3944C33.2958 15.8554 33.0773 15.3385 32.6884 14.9574C32.2995 14.5763 31.7721 14.3622 31.2221 14.3622Z" fill="white"/>
</g>
<defs>
<clipPath id="clip0_4551_19902">
<rect width="187" height="34" fill="white"/>
</clipPath>
</defs>
</svg>
