<svg width="449" height="273" viewBox="0 0 449 273" fill="none" xmlns="http://www.w3.org/2000/svg">
<g clip-path="url(#clip0_2838_10348)">
<path d="M0 273C37.9945 199.966 66.0664 189.082 85.5903 195.219C118.08 205.432 131.973 264.368 161.891 254.693C184.776 247.292 189.187 208.747 211.682 209.945C231.268 210.987 234.339 240.549 254.313 252.865C290.748 275.332 314.003 197.606 357.389 193.877C377.167 192.177 404.899 205.528 439.786 271.606C293.192 272.07 146.596 272.534 0.00144099 273H0Z" fill="#6373E5"/>
<path d="M351.965 269.433C350.706 258.256 350.715 249.392 346.766 238.849C342.818 228.306 336.685 218.379 327.964 211.184C325.019 208.754 321.317 206.548 317.57 207.344C312.609 208.399 310.164 214.449 311.206 219.37C312.247 224.292 315.719 228.298 318.985 232.147C329.353 244.358 338.857 257.291 347.405 270.816L351.965 269.433Z" fill="#8C9AFF"/>
<path d="M349.585 270.718C349.324 270.718 349.089 270.539 349.031 270.276C349.013 270.189 347.086 261.464 342.743 250.731C338.746 240.851 331.823 227.194 321.552 218.253C321.317 218.049 321.294 217.694 321.5 217.461C321.706 217.228 322.065 217.205 322.3 217.409C326.917 221.428 331.254 226.702 335.192 233.079C338.335 238.171 341.231 243.975 343.802 250.333C348.177 261.151 350.119 269.952 350.14 270.04C350.206 270.343 350.011 270.642 349.706 270.707C349.666 270.715 349.625 270.72 349.586 270.72L349.585 270.718Z" fill="#2F29C4"/>
<path d="M349.703 271.198C353.65 256.121 365.852 242.062 378.129 232.336C390.405 222.611 405.905 216.949 421.614 216.452C424.73 216.353 427.96 216.477 430.769 217.816C433.577 219.155 435.864 221.99 435.665 225.073C435.449 228.421 432.564 230.92 429.813 232.875C410.111 246.877 377.941 254.137 361.035 271.359L349.703 271.198Z" fill="#8C9AFF"/>
<path d="M360.591 271.635C360.529 271.635 360.467 271.625 360.405 271.603C360.109 271.501 359.952 271.182 360.055 270.889C360.085 270.802 360.82 268.718 362.552 265.439C364.146 262.421 366.921 257.787 371.09 252.845C375.776 247.291 381.234 242.487 387.311 238.566C394.906 233.666 403.495 230.141 412.838 228.089C413.144 228.021 413.446 228.212 413.514 228.516C413.582 228.819 413.389 229.118 413.083 229.185C403.884 231.206 395.431 234.673 387.957 239.491C381.976 243.345 376.604 248.069 371.99 253.529C367.882 258.392 365.147 262.951 363.576 265.922C361.873 269.142 361.133 271.237 361.125 271.257C361.045 271.49 360.824 271.635 360.589 271.635H360.591Z" fill="#2F29C4"/>
<path d="M349.708 271.037C349.166 232.414 366.347 194.728 400.343 175.833C403.908 173.851 407.719 172.032 411.801 171.819C415.884 171.605 420.31 173.35 422.175 176.955C423.8 180.098 423.174 184.008 421.475 187.112C419.776 190.216 417.137 192.692 414.58 195.152C391.316 217.515 366.066 243.309 349.709 271.039L349.708 271.037Z" fill="#E5E4ED"/>
<path d="M349.74 271.678C349.699 271.678 349.659 271.674 349.619 271.665C349.313 271.599 349.119 271.3 349.185 270.997C349.215 270.86 352.258 257.193 360.762 239.924C365.756 229.782 371.63 220.394 378.222 212.019C386.466 201.545 395.861 192.638 406.147 185.546C406.404 185.369 406.757 185.431 406.935 185.686C407.114 185.941 407.051 186.291 406.794 186.468C396.606 193.493 387.299 202.318 379.127 212.696C372.585 221.004 366.753 230.322 361.793 240.388C353.344 257.541 350.32 271.1 350.29 271.235C350.232 271.498 349.998 271.678 349.737 271.678H349.74Z" fill="#4242D1"/>
<path d="M127.977 269.333C129.125 259.139 129.118 251.053 132.719 241.437C136.32 231.821 141.914 222.766 149.869 216.204C152.555 213.988 155.933 211.975 159.35 212.702C163.874 213.663 166.105 219.182 165.154 223.672C164.203 228.161 161.039 231.815 158.059 235.324C148.603 246.462 139.934 258.258 132.137 270.595L127.977 269.334V269.333Z" fill="#8C9AFF"/>
<path d="M130.157 270.505C130.395 270.505 130.609 270.342 130.661 270.102C130.678 270.023 132.436 262.065 136.398 252.275C140.045 243.262 146.358 230.806 155.726 222.65C155.94 222.463 155.961 222.14 155.773 221.927C155.584 221.714 155.259 221.694 155.044 221.88C150.832 225.547 146.877 230.355 143.286 236.173C140.42 240.818 137.777 246.111 135.432 251.91C131.442 261.777 129.67 269.804 129.652 269.883C129.592 270.159 129.769 270.432 130.049 270.493C130.086 270.5 130.122 270.504 130.158 270.504L130.157 270.505Z" fill="#2F29C4"/>
<path d="M130.051 270.942C126.45 257.192 115.321 244.367 104.123 235.496C92.9267 226.626 78.7891 221.461 64.4614 221.009C61.6198 220.919 58.673 221.032 56.1109 222.253C53.5488 223.474 51.4623 226.06 51.6438 228.872C51.8412 231.925 54.4725 234.206 56.9812 235.988C74.9518 248.758 104.295 255.381 119.713 271.089L130.049 270.942H130.051Z" fill="#8C9AFF"/>
<path d="M120.114 271.34C120.17 271.34 120.227 271.332 120.282 271.312C120.552 271.22 120.694 270.928 120.602 270.661C120.575 270.582 119.905 268.68 118.324 265.689C116.87 262.937 114.34 258.709 110.537 254.203C106.263 249.138 101.284 244.755 95.7408 241.178C88.8125 236.709 80.9793 233.493 72.4573 231.621C72.1792 231.559 71.9025 231.734 71.8405 232.01C71.7786 232.286 71.9544 232.561 72.2339 232.621C80.6248 234.465 88.3355 237.627 95.1528 242.02C100.607 245.535 105.506 249.843 109.715 254.825C113.463 259.261 115.958 263.42 117.39 266.128C118.944 269.066 119.619 270.977 119.625 270.995C119.699 271.207 119.899 271.34 120.114 271.34Z" fill="#2F29C4"/>
<path d="M130.045 270.796C130.539 235.567 114.868 201.194 83.861 183.959C80.6087 182.152 77.133 180.493 73.4095 180.298C69.686 180.102 65.6483 181.693 63.948 184.982C62.4652 187.849 63.0373 191.416 64.5863 194.247C66.1354 197.077 68.5419 199.336 70.8748 201.579C92.0933 221.977 115.125 245.504 130.043 270.796H130.045Z" fill="#E5E4ED"/>
<path d="M130.006 271.381C130.042 271.381 130.079 271.376 130.115 271.369C130.395 271.309 130.57 271.037 130.51 270.76C130.483 270.636 127.706 258.169 119.95 242.418C115.395 233.168 110.036 224.604 104.025 216.966C96.5056 207.413 87.936 199.289 78.5537 192.819C78.3203 192.659 77.9975 192.715 77.8347 192.947C77.6719 193.18 77.7295 193.499 77.9644 193.66C87.2559 200.068 95.7462 208.116 103.199 217.581C109.166 225.16 114.485 233.658 119.008 242.841C126.716 258.485 129.472 270.853 129.5 270.977C129.552 271.217 129.766 271.381 130.004 271.381H130.006Z" fill="#4242D1"/>
<path d="M390.377 271.487L389.609 271.234C389.689 270.997 391.638 265.324 398.804 257.752C403 253.319 408.123 249.162 414.031 245.394C421.408 240.691 430.038 236.586 439.681 233.191L439.952 233.947C430.385 237.314 421.824 241.384 414.51 246.042C408.661 249.768 403.59 253.877 399.438 258.255C395.747 262.148 393.478 265.539 392.228 267.698C390.872 270.036 390.383 271.473 390.377 271.487Z" fill="#B3B3DD"/>
<path d="M436.469 234.789C436.469 234.789 437.372 229.668 440.764 228.415C444.156 227.162 446.286 227.422 448.296 228.415C450.307 229.408 447.655 230.999 444.61 232.851C441.566 234.702 436.469 234.791 436.469 234.791V234.789Z" fill="#B3B3DD"/>
<path d="M434.803 242.359C435.276 242.524 435.313 243.173 434.862 243.39C430.67 245.406 425.842 246.101 421.245 245.358C420.619 245.256 418.389 245.098 418.157 244.337C417.873 243.404 419.569 242.733 420.19 242.461C422.536 241.435 425.239 241.001 427.788 240.985C429.251 240.975 430.715 241.118 432.149 241.412C432.487 241.483 433.77 242 434.803 242.361V242.359Z" fill="#B3B3DD"/>
<path d="M414.793 233.087C415.264 232.595 416.023 232.938 416.081 233.667C416.302 236.426 415.755 239.253 414.816 241.823C414.178 243.571 412.999 247.303 411.451 248.208C409.172 249.54 409.15 246.811 409.37 244.998C409.922 240.477 411.849 236.159 414.791 233.088L414.793 233.087Z" fill="#B3B3DD"/>
<path d="M415.659 254.132C416.371 254.273 417.227 254.604 417.287 255.321C417.355 256.13 416.372 256.57 415.578 256.765C413.098 257.379 410.618 257.994 408.138 258.607C406.637 258.979 405.053 259.35 403.563 258.936C402.448 258.626 400.756 257.307 401.185 255.962C401.582 254.723 403.876 254.451 404.908 254.23C408.435 253.474 412.118 253.434 415.659 254.131V254.132Z" fill="#B3B3DD"/>
<path d="M395.248 262.718C394.563 260.444 393.88 258.169 393.196 255.894C392.794 254.559 392.39 253.21 392.283 251.82C392.177 250.431 392.392 248.976 393.145 247.801C395.69 249.742 397.847 252.309 398.376 255.447C398.905 258.586 397.925 260.961 395.248 262.717V262.718Z" fill="#B3B3DD"/>
<path d="M389.644 271.704C389.637 271.585 388.967 259.584 391.415 244.871C392.854 236.225 395.073 228.342 398.01 221.443C401.689 212.802 406.511 205.686 412.342 200.292L412.894 200.878C407.149 206.192 402.392 213.213 398.759 221.745C395.847 228.583 393.645 236.403 392.216 244.983C389.779 259.612 390.444 271.537 390.451 271.655L389.642 271.703L389.644 271.704Z" fill="#B3B3DD"/>
<path d="M414.248 192.41C415.842 189.749 418.518 187.587 421.568 187.103C421.982 187.037 422.313 187.435 422.166 187.823C421.67 189.128 420.779 191.575 420.617 191.891C419.797 193.503 418.806 195.03 417.669 196.441C416.532 197.85 415.247 199.145 413.839 200.289C413.523 200.545 412.318 201.769 411.849 201.434C411.444 201.147 411.96 199.24 412.037 198.786C412.418 196.561 413.081 194.361 414.249 192.411L414.248 192.41Z" fill="#B3B3DD"/>
<path d="M399.863 203.577C399.931 201.338 400.457 198.862 402.304 197.572C402.418 197.491 403.832 202.128 403.908 202.572C404.215 204.367 404.263 206.206 404.057 208.016C403.923 209.195 403.74 212.084 402.689 212.842C401.149 213.955 400.62 211.622 400.463 210.683C400.069 208.335 399.79 205.959 399.863 203.575V203.577Z" fill="#B3B3DD"/>
<path d="M411.747 213.896C412.075 213.924 412.25 214.298 412.063 214.565C409.953 217.592 406.785 219.885 403.227 220.938C402.006 221.3 399.338 221.352 399.707 219.319C399.911 218.195 401.927 216.898 402.813 216.291C405.398 214.521 408.612 213.627 411.747 213.896Z" fill="#B3B3DD"/>
<path d="M390.866 220.306C390.899 220.049 391.198 219.933 391.389 220.101C392.678 221.229 393.475 222.898 393.852 224.608C394.274 226.517 394.228 228.497 394.181 230.453C394.15 231.709 394.241 233.051 394.058 234.288C393.28 234.282 392.371 232.005 392.061 231.335C391.499 230.116 391.077 228.83 390.801 227.511C390.532 226.218 390.404 224.894 390.424 223.572C390.428 223.292 390.735 221.309 390.865 220.308L390.866 220.306Z" fill="#B3B3DD"/>
<path d="M405.036 230.927C405.292 230.878 405.484 231.122 405.327 231.297C404.824 231.858 404.217 232.69 403.988 232.904C403.269 233.574 402.491 234.2 401.662 234.778C399.94 235.978 398.004 236.966 395.934 237.696C395.403 237.883 393.6 238.696 393.065 238.412C392.281 237.995 393.287 237.014 393.629 236.68C395.107 235.233 396.891 233.993 398.848 233.013C400.762 232.055 402.857 231.341 405.037 230.927H405.036Z" fill="#B3B3DD"/>
<path d="M383.859 250.827C382.817 248.477 382.869 245.68 383.967 243.358C384.091 243.096 384.457 243.075 384.607 243.322L386.581 246.573C387.467 248.031 388.353 249.497 389.078 251.044C389.486 251.915 390.962 254.568 390.162 255.424C388.411 257.301 384.411 252.072 383.859 250.827Z" fill="#B3B3DD"/>
<path d="M283.77 270.612L284.538 270.359C284.458 270.122 282.509 264.449 275.343 256.877C271.147 252.444 266.024 248.287 260.116 244.519C252.739 239.816 244.109 235.71 234.466 232.316L234.195 233.072C243.762 236.439 252.323 240.509 259.637 245.167C265.486 248.893 270.557 253.002 274.709 257.38C278.4 261.273 280.669 264.664 281.919 266.822C283.275 269.16 283.764 270.597 283.77 270.612Z" fill="#CFCEED"/>
<path d="M237.661 233.914C237.661 233.914 236.758 228.793 233.366 227.54C229.974 226.287 227.844 226.547 225.834 227.54C223.824 228.533 226.475 230.123 229.52 231.976C232.565 233.826 237.661 233.916 237.661 233.916V233.914Z" fill="#CFCEED"/>
<path d="M239.338 241.484C238.865 241.649 238.828 242.297 239.279 242.514C243.471 244.531 248.299 245.226 252.896 244.483C253.521 244.381 255.752 244.223 255.984 243.461C256.268 242.529 254.572 241.858 253.951 241.586C251.605 240.56 248.902 240.126 246.353 240.11C244.89 240.1 243.426 240.243 241.992 240.537C241.653 240.608 240.371 241.125 239.338 241.486V241.484Z" fill="#CFCEED"/>
<path d="M259.345 232.211C258.874 231.72 258.114 232.063 258.057 232.792C257.836 235.551 258.382 238.377 259.322 240.948C259.96 242.695 261.139 246.427 262.686 247.333C264.966 248.665 264.988 245.936 264.767 244.122C264.215 239.602 262.289 235.284 259.346 232.213L259.345 232.211Z" fill="#CFCEED"/>
<path d="M258.483 253.257C257.771 253.398 256.915 253.729 256.855 254.446C256.787 255.255 257.77 255.694 258.564 255.89C261.044 256.503 263.524 257.118 266.004 257.732C267.505 258.104 269.089 258.475 270.579 258.061C271.694 257.751 273.386 256.431 272.956 255.086C272.56 253.848 270.266 253.576 269.234 253.355C265.707 252.599 262.024 252.559 258.483 253.256V253.257Z" fill="#CFCEED"/>
<path d="M278.891 261.845C279.576 259.57 280.259 257.295 280.943 255.02C281.345 253.685 281.749 252.336 281.856 250.946C281.962 249.557 281.747 248.103 280.994 246.927C278.449 248.869 276.292 251.435 275.763 254.573C275.234 257.712 276.214 260.087 278.891 261.843V261.845Z" fill="#CFCEED"/>
<path d="M287.719 270.188C287.726 270.069 288.396 258.068 285.948 243.355C284.509 234.709 282.289 226.826 279.353 219.927C275.674 211.286 270.852 204.17 265.021 198.776L264.469 199.362C270.214 204.676 274.971 211.697 278.603 220.228C281.516 227.067 283.717 234.887 285.147 243.467C287.584 258.096 286.919 270.021 286.912 270.139L287.721 270.186L287.719 270.188Z" fill="#CFCEED"/>
<path d="M263.126 190.894C261.532 188.233 258.856 186.071 255.805 185.587C255.392 185.521 255.06 185.919 255.207 186.307C255.703 187.612 256.595 190.059 256.756 190.375C257.576 191.987 258.568 193.513 259.705 194.925C260.842 196.334 262.127 197.629 263.535 198.773C263.85 199.029 265.055 200.253 265.525 199.918C265.93 199.631 265.414 197.724 265.336 197.27C264.956 195.045 264.293 192.845 263.124 190.895L263.126 190.894Z" fill="#CFCEED"/>
<path d="M277.498 202.061C277.43 199.822 276.904 197.346 275.057 196.055C274.943 195.975 273.53 200.612 273.453 201.056C273.146 202.851 273.099 204.69 273.305 206.499C273.439 207.679 273.622 210.568 274.672 211.326C276.213 212.438 276.742 210.106 276.899 209.166C277.292 206.818 277.572 204.443 277.498 202.059V202.061Z" fill="#CFCEED"/>
<path d="M265.619 212.378C265.292 212.407 265.116 212.78 265.303 213.048C267.413 216.074 270.581 218.367 274.139 219.421C275.36 219.783 278.029 219.835 277.66 217.801C277.455 216.678 275.439 215.38 274.553 214.774C271.968 213.003 268.754 212.109 265.619 212.378Z" fill="#CFCEED"/>
<path d="M286.5 218.79C286.467 218.533 286.169 218.416 285.977 218.584C284.689 219.712 283.892 221.382 283.515 223.092C283.093 225 283.139 226.981 283.186 228.936C283.216 230.192 283.126 231.534 283.309 232.772C284.087 232.766 284.996 230.488 285.306 229.819C285.868 228.6 286.29 227.314 286.565 225.995C286.835 224.702 286.963 223.378 286.943 222.056C286.939 221.776 286.632 219.793 286.502 218.791L286.5 218.79Z" fill="#CFCEED"/>
<path d="M272.332 229.409C272.076 229.36 271.884 229.605 272.041 229.78C272.544 230.34 273.151 231.172 273.38 231.386C274.099 232.056 274.877 232.683 275.706 233.26C277.428 234.46 279.364 235.449 281.434 236.179C281.965 236.366 283.768 237.179 284.303 236.894C285.086 236.478 284.081 235.496 283.739 235.163C282.261 233.716 280.477 232.476 278.52 231.496C276.606 230.537 274.511 229.823 272.331 229.409H272.332Z" fill="#CFCEED"/>
<path d="M293.505 249.311C294.547 246.96 294.495 244.164 293.397 241.842C293.273 241.58 292.907 241.559 292.758 241.806L290.783 245.056C289.897 246.515 289.011 247.981 288.286 249.528C287.878 250.399 286.403 253.052 287.203 253.908C288.953 255.785 292.954 250.556 293.505 249.311Z" fill="#CFCEED"/>
<path d="M242.58 175.024C291.35 175.024 330.887 135.843 330.887 87.512C330.887 39.1804 291.35 0 242.58 0C193.81 0 154.273 39.1804 154.273 87.512C154.273 135.843 193.81 175.024 242.58 175.024Z" fill="#8C9AFF"/>
<path d="M242.569 158.5C282.13 158.5 314.2 126.718 314.2 87.512C314.2 48.3063 282.13 16.5238 242.569 16.5238C203.008 16.5238 170.938 48.3063 170.938 87.512C170.938 126.718 203.008 158.5 242.569 158.5Z" fill="#2F29C4"/>
<path d="M234.346 126.085C231.628 126.085 229.008 125.017 227.073 123.1L199.974 96.2445C195.957 92.264 195.957 85.8091 199.974 81.8287C203.992 77.8483 210.503 77.8483 214.519 81.8287L233.291 100.432L269.738 52.9598C273.178 48.4793 279.63 47.6114 284.152 51.0199C288.673 54.4284 289.549 60.8244 286.11 65.3034L242.532 122.063C240.734 124.405 238.003 125.862 235.04 126.06C234.808 126.076 234.576 126.083 234.346 126.083V126.085Z" fill="#4242D1"/>
<path d="M234.346 119.731C231.628 119.731 229.008 118.663 227.073 116.746L199.974 89.8903C195.957 85.9099 195.957 79.455 199.974 75.4746C203.992 71.4941 210.503 71.4941 214.519 75.4746L233.291 94.0777L269.738 46.6057C273.178 42.1252 279.63 41.2572 284.152 44.6658C288.673 48.0743 289.549 54.4703 286.11 58.9493L242.532 115.709C240.734 118.051 238.003 119.508 235.04 119.706C234.808 119.722 234.576 119.729 234.346 119.729V119.731Z" fill="#E3E2ED"/>
<path d="M375.605 100.892H383.026C386.758 100.892 389.091 104.766 387.225 107.865L383.515 114.027L379.804 120.189C377.938 123.288 373.272 123.288 371.406 120.189L367.695 114.027L363.985 107.865C362.119 104.766 364.452 100.892 368.184 100.892H375.605Z" fill="#E5E4ED"/>
<path d="M252.909 161.907H257.084C259.183 161.907 260.496 164.087 259.447 165.83L257.359 169.296L255.271 172.762C254.22 174.505 251.596 174.505 250.546 172.762L248.458 169.296L246.37 165.83C245.319 164.087 246.632 161.907 248.733 161.907H252.908H252.909Z" fill="#C7F0EE"/>
<path d="M367.229 45.5408L370.124 50.1017C371.579 52.3966 369.899 55.341 367.098 55.4027L361.53 55.5249L355.962 55.647C353.161 55.7088 351.342 52.8406 352.687 50.484L355.36 45.7994L358.033 41.1149C359.377 38.7582 362.879 38.6821 364.334 40.9769L367.229 45.5379V45.5408Z" fill="#8C9AFF"/>
<path d="M125.699 51.3534L130.211 54.4832C132.48 56.0581 132.121 59.3976 129.565 60.494L124.483 62.6754L119.4 64.8567C116.844 65.9546 114.007 63.9859 114.294 61.3146L114.864 56.0035L115.435 50.6924C115.722 48.0211 118.918 46.6488 121.187 48.2237L125.699 51.3534Z" fill="#E5E4ED"/>
<path d="M97.4659 133.126V140.24C97.4659 143.819 93.4253 146.056 90.1918 144.267L83.765 140.71L77.3382 137.154C74.106 135.365 74.106 130.891 77.3382 129.101L83.765 125.544L90.1918 121.988C93.4239 120.199 97.4659 122.435 97.4659 126.014V133.129V133.126Z" fill="#8C9AFF"/>
</g>
<defs>
<clipPath id="clip0_2838_10348">
<rect width="449" height="273" fill="white"/>
</clipPath>
</defs>
</svg>
