<svg width="451" height="274" viewBox="0 0 451 274" fill="none" xmlns="http://www.w3.org/2000/svg">
<g clip-path="url(#clip0_2889_10614)">
<path d="M0 274C38.1637 200.698 66.3606 189.775 85.9715 195.934C118.606 206.184 132.561 265.337 162.612 255.626C185.599 248.198 190.03 209.512 212.625 210.714C232.298 211.76 235.383 241.43 255.445 253.791C292.043 276.341 315.401 198.33 358.981 194.587C378.847 192.881 406.702 206.281 441.745 272.601C294.498 273.067 147.249 273.533 0.00144741 274H0Z" fill="#6373E5"/>
<path d="M353.531 270.42C352.266 259.202 352.274 250.305 348.308 239.724C344.343 229.142 338.182 219.179 329.423 211.958C326.464 209.519 322.746 207.305 318.983 208.104C313.999 209.162 311.543 215.234 312.589 220.174C313.636 225.114 317.123 229.135 320.404 232.997C330.818 245.253 340.364 258.233 348.95 271.808L353.531 270.42Z" fill="#8C9AFF"/>
<path d="M351.14 271.71C350.878 271.71 350.642 271.53 350.584 271.266C350.566 271.179 348.63 262.422 344.268 251.65C340.253 241.733 333.299 228.026 322.982 219.052C322.746 218.847 322.723 218.491 322.93 218.257C323.137 218.024 323.498 218.001 323.734 218.206C328.371 222.24 332.728 227.533 336.684 233.933C339.84 239.043 342.75 244.868 345.332 251.25C349.726 262.107 351.677 270.941 351.697 271.029C351.764 271.333 351.569 271.633 351.262 271.698C351.221 271.707 351.181 271.711 351.142 271.711L351.14 271.71Z" fill="#2F29C4"/>
<path d="M351.258 272.192C355.222 257.06 367.479 242.949 379.811 233.188C392.141 223.426 407.71 217.744 423.489 217.245C426.618 217.146 429.864 217.27 432.684 218.614C435.505 219.958 437.803 222.803 437.603 225.897C437.386 229.257 434.488 231.766 431.725 233.728C411.935 247.782 379.621 255.068 362.64 272.353L351.258 272.192Z" fill="#8C9AFF"/>
<path d="M362.195 272.63C362.133 272.63 362.07 272.62 362.008 272.598C361.711 272.496 361.554 272.176 361.656 271.881C361.687 271.793 362.425 269.702 364.165 266.411C365.766 263.382 368.553 258.731 372.741 253.771C377.448 248.197 382.93 243.376 389.034 239.44C396.663 234.522 405.29 230.984 414.675 228.924C414.982 228.856 415.286 229.048 415.354 229.353C415.422 229.657 415.228 229.957 414.921 230.025C405.681 232.052 397.19 235.533 389.683 240.368C383.676 244.237 378.28 248.977 373.645 254.458C369.519 259.338 366.772 263.915 365.194 266.896C363.483 270.128 362.739 272.23 362.732 272.251C362.651 272.484 362.429 272.63 362.193 272.63H362.195Z" fill="#2F29C4"/>
<path d="M351.262 272.03C350.718 233.265 367.976 195.441 402.123 176.477C405.704 174.488 409.532 172.662 413.633 172.449C417.733 172.234 422.18 173.985 424.052 177.603C425.685 180.758 425.056 184.682 423.349 187.797C421.643 190.912 418.992 193.397 416.423 195.866C393.056 218.312 367.693 244.2 351.264 272.031L351.262 272.03Z" fill="#E5E4ED"/>
<path d="M351.297 272.673C351.256 272.673 351.216 272.669 351.175 272.66C350.868 272.594 350.673 272.294 350.74 271.99C350.77 271.853 353.827 258.135 362.368 240.803C367.385 230.623 373.284 221.201 379.906 212.796C388.187 202.283 397.624 193.344 407.956 186.225C408.213 186.048 408.568 186.11 408.747 186.367C408.927 186.622 408.863 186.974 408.605 187.151C398.372 194.202 389.023 203.059 380.815 213.475C374.244 221.814 368.386 231.166 363.404 241.268C354.917 258.484 351.88 272.093 351.85 272.229C351.792 272.493 351.556 272.673 351.294 272.673H351.297Z" fill="#4242D1"/>
<path d="M128.539 270.32C129.693 260.088 129.685 251.973 133.302 242.321C136.92 232.67 142.538 223.582 150.53 216.996C153.227 214.772 156.62 212.751 160.052 213.481C164.597 214.446 166.837 219.985 165.882 224.491C164.927 228.996 161.748 232.664 158.755 236.186C149.257 247.365 140.55 259.204 132.718 271.586L128.539 270.321V270.32Z" fill="#8C9AFF"/>
<path d="M130.737 271.496C130.976 271.496 131.192 271.332 131.244 271.091C131.261 271.012 133.027 263.025 137.006 253.199C140.669 244.153 147.01 231.651 156.42 223.465C156.636 223.278 156.656 222.953 156.468 222.74C156.278 222.526 155.951 222.506 155.735 222.692C151.505 226.373 147.531 231.199 143.925 237.038C141.046 241.7 138.391 247.013 136.036 252.832C132.028 262.736 130.248 270.792 130.231 270.872C130.17 271.149 130.348 271.423 130.629 271.483C130.666 271.491 130.703 271.495 130.739 271.495L130.737 271.496Z" fill="#2F29C4"/>
<path d="M130.627 271.935C127.01 258.134 115.831 245.262 104.584 236.359C93.3372 227.456 79.1367 222.273 64.7451 221.818C61.8908 221.729 58.9309 221.841 56.3574 223.067C53.7839 224.293 51.6881 226.888 51.8704 229.71C52.0687 232.775 54.7117 235.064 57.2316 236.852C75.2822 249.669 104.756 256.317 120.243 272.082L130.625 271.935H130.627Z" fill="#8C9AFF"/>
<path d="M120.649 272.334C120.705 272.334 120.763 272.325 120.818 272.305C121.089 272.213 121.232 271.92 121.14 271.652C121.112 271.573 120.439 269.665 118.851 266.662C117.391 263.9 114.849 259.657 111.03 255.134C106.737 250.05 101.736 245.651 96.1676 242.061C89.2085 237.576 81.3404 234.348 72.7804 232.469C72.5011 232.407 72.2232 232.583 72.1609 232.86C72.0987 233.137 72.2753 233.412 72.5561 233.473C80.9843 235.323 88.7294 238.498 95.5771 242.907C101.055 246.434 105.977 250.758 110.205 255.758C113.969 260.211 116.475 264.384 117.913 267.103C119.474 270.051 120.153 271.969 120.158 271.988C120.232 272.2 120.433 272.334 120.649 272.334Z" fill="#2F29C4"/>
<path d="M130.624 271.788C131.121 236.43 115.38 201.931 84.2348 184.633C80.968 182.819 77.4768 181.154 73.7367 180.958C69.9966 180.762 65.941 182.359 64.2331 185.66C62.7437 188.537 63.3183 192.117 64.8743 194.958C66.4302 197.799 68.8474 200.066 71.1908 202.318C92.5038 222.79 115.638 246.403 130.623 271.788H130.624Z" fill="#E5E4ED"/>
<path d="M130.582 272.375C130.618 272.375 130.656 272.37 130.692 272.363C130.973 272.302 131.15 272.03 131.089 271.752C131.061 271.627 128.272 259.115 120.482 243.306C115.907 234.022 110.524 225.427 104.485 217.761C96.9329 208.173 88.3252 200.019 78.9011 193.526C78.6666 193.364 78.3424 193.42 78.1788 193.654C78.0153 193.888 78.0732 194.208 78.3091 194.369C87.642 200.8 96.1701 208.878 103.656 218.378C109.65 225.985 114.992 234.514 119.536 243.73C127.278 259.432 130.047 271.845 130.074 271.969C130.126 272.21 130.342 272.375 130.581 272.375H130.582Z" fill="#4242D1"/>
<path d="M392.115 272.481L391.344 272.227C391.423 271.989 393.382 266.295 400.58 258.696C404.794 254.247 409.94 250.075 415.874 246.293C423.284 241.573 431.952 237.452 441.638 234.046L441.91 234.804C432.301 238.183 423.702 242.268 416.355 246.943C410.48 250.683 405.386 254.807 401.216 259.201C397.508 263.108 395.23 266.512 393.974 268.678C392.612 271.025 392.121 272.467 392.115 272.481Z" fill="#B3B3DD"/>
<path d="M438.414 235.649C438.414 235.649 439.322 230.509 442.729 229.251C446.136 227.994 448.275 228.255 450.294 229.251C452.314 230.248 449.65 231.845 446.592 233.704C443.534 235.561 438.414 235.651 438.414 235.651V235.649Z" fill="#B3B3DD"/>
<path d="M436.737 243.247C437.211 243.413 437.249 244.063 436.796 244.281C432.586 246.305 427.735 247.003 423.118 246.257C422.49 246.155 420.249 245.996 420.016 245.231C419.731 244.295 421.435 243.622 422.059 243.349C424.415 242.32 427.13 241.884 429.691 241.868C431.16 241.858 432.63 242.001 434.071 242.297C434.411 242.367 435.699 242.886 436.737 243.248V243.247Z" fill="#B3B3DD"/>
<path d="M416.638 233.94C417.111 233.447 417.874 233.792 417.932 234.523C418.153 237.292 417.605 240.129 416.661 242.709C416.02 244.463 414.836 248.208 413.281 249.117C410.991 250.454 410.97 247.715 411.191 245.895C411.746 241.358 413.681 237.024 416.636 233.942L416.638 233.94Z" fill="#B3B3DD"/>
<path d="M417.513 255.063C418.228 255.205 419.087 255.536 419.148 256.256C419.216 257.068 418.229 257.509 417.432 257.705C414.941 258.321 412.45 258.939 409.959 259.554C408.45 259.928 406.86 260.3 405.363 259.885C404.243 259.573 402.544 258.249 402.975 256.899C403.373 255.656 405.677 255.383 406.713 255.161C410.257 254.403 413.956 254.362 417.513 255.062V255.063Z" fill="#B3B3DD"/>
<path d="M397.003 263.681C396.316 261.397 395.629 259.114 394.942 256.831C394.538 255.491 394.133 254.137 394.026 252.743C393.919 251.348 394.134 249.888 394.891 248.709C397.447 250.657 399.614 253.233 400.145 256.383C400.677 259.533 399.692 261.917 397.003 263.679V263.681Z" fill="#B3B3DD"/>
<path d="M391.386 272.699C391.379 272.579 390.706 260.535 393.165 245.768C394.611 237.09 396.84 229.178 399.79 222.254C403.485 213.582 408.328 206.44 414.186 201.026L414.74 201.614C408.969 206.947 404.192 213.994 400.543 222.557C397.617 229.42 395.406 237.269 393.97 245.881C391.522 260.563 392.19 272.532 392.197 272.65L391.385 272.698L391.386 272.699Z" fill="#B3B3DD"/>
<path d="M416.095 193.115C417.696 190.444 420.384 188.275 423.448 187.789C423.864 187.722 424.196 188.122 424.049 188.511C423.551 189.821 422.655 192.277 422.493 192.594C421.669 194.212 420.673 195.744 419.531 197.16C418.389 198.575 417.098 199.874 415.684 201.023C415.367 201.279 414.157 202.508 413.685 202.172C413.279 201.884 413.797 199.97 413.875 199.514C414.257 197.281 414.923 195.073 416.097 193.116L416.095 193.115Z" fill="#B3B3DD"/>
<path d="M401.652 204.322C401.72 202.075 402.249 199.59 404.104 198.295C404.219 198.214 405.639 202.869 405.715 203.314C406.024 205.116 406.071 206.962 405.864 208.777C405.73 209.962 405.546 212.86 404.491 213.622C402.944 214.738 402.412 212.397 402.255 211.454C401.859 209.098 401.579 206.714 401.652 204.321V204.322Z" fill="#B3B3DD"/>
<path d="M413.582 214.679C413.911 214.708 414.088 215.083 413.899 215.351C411.78 218.389 408.598 220.69 405.024 221.748C403.798 222.111 401.117 222.163 401.488 220.122C401.693 218.994 403.718 217.692 404.609 217.083C407.205 215.307 410.433 214.409 413.582 214.679Z" fill="#B3B3DD"/>
<path d="M392.61 221.113C392.644 220.855 392.943 220.738 393.136 220.907C394.43 222.039 395.23 223.715 395.61 225.431C396.034 227.347 395.987 229.334 395.94 231.297C395.909 232.557 396 233.904 395.816 235.146C395.035 235.14 394.122 232.854 393.81 232.182C393.246 230.959 392.822 229.669 392.545 228.345C392.275 227.047 392.146 225.718 392.166 224.391C392.17 224.11 392.479 222.12 392.609 221.115L392.61 221.113Z" fill="#B3B3DD"/>
<path d="M406.84 231.772C407.098 231.723 407.29 231.969 407.133 232.145C406.627 232.707 406.018 233.542 405.788 233.757C405.066 234.429 404.284 235.058 403.452 235.638C401.722 236.842 399.777 237.834 397.698 238.567C397.164 238.754 395.354 239.571 394.817 239.285C394.029 238.867 395.039 237.882 395.383 237.547C396.868 236.095 398.659 234.85 400.625 233.867C402.547 232.905 404.652 232.188 406.842 231.772H406.84Z" fill="#B3B3DD"/>
<path d="M385.573 251.746C384.527 249.387 384.579 246.58 385.682 244.249C385.806 243.987 386.174 243.965 386.324 244.213L388.307 247.476C389.198 248.94 390.088 250.411 390.816 251.964C391.225 252.838 392.707 255.5 391.904 256.36C390.146 258.243 386.128 252.995 385.573 251.746Z" fill="#B3B3DD"/>
<path d="M285.037 271.603L285.809 271.349C285.729 271.111 283.771 265.417 276.573 257.818C272.358 253.369 267.212 249.196 261.278 245.415C253.869 240.694 245.2 236.574 235.514 233.167L235.242 233.926C244.852 237.305 253.451 241.389 260.798 246.065C266.673 249.805 271.766 253.928 275.936 258.323C279.644 262.23 281.922 265.634 283.179 267.8C284.541 270.146 285.031 271.589 285.037 271.603Z" fill="#CFCEED"/>
<path d="M238.725 234.771C238.725 234.771 237.817 229.631 234.41 228.373C231.003 227.116 228.864 227.377 226.845 228.373C224.825 229.37 227.489 230.966 230.547 232.825C233.605 234.683 238.725 234.772 238.725 234.772V234.771Z" fill="#CFCEED"/>
<path d="M240.41 242.369C239.935 242.535 239.897 243.185 240.35 243.403C244.561 245.426 249.411 246.124 254.028 245.379C254.657 245.276 256.897 245.118 257.13 244.353C257.415 243.417 255.712 242.744 255.088 242.471C252.732 241.441 250.016 241.006 247.456 240.99C245.987 240.98 244.516 241.123 243.076 241.418C242.736 241.489 241.448 242.008 240.41 242.37V242.369Z" fill="#CFCEED"/>
<path d="M260.507 233.062C260.034 232.569 259.271 232.913 259.213 233.645C258.992 236.414 259.54 239.251 260.484 241.831C261.125 243.584 262.309 247.33 263.864 248.239C266.153 249.576 266.175 246.837 265.954 245.017C265.399 240.479 263.464 236.145 260.508 233.063L260.507 233.062Z" fill="#CFCEED"/>
<path d="M259.639 254.185C258.924 254.326 258.064 254.658 258.003 255.378C257.935 256.19 258.922 256.631 259.72 256.827C262.211 257.443 264.702 258.06 267.193 258.676C268.701 259.05 270.292 259.422 271.788 259.006C272.909 258.695 274.608 257.371 274.177 256.021C273.779 254.778 271.474 254.505 270.438 254.283C266.895 253.524 263.195 253.484 259.639 254.183V254.185Z" fill="#CFCEED"/>
<path d="M280.14 262.804C280.828 260.521 281.514 258.238 282.201 255.954C282.605 254.615 283.011 253.26 283.118 251.866C283.225 250.471 283.009 249.012 282.252 247.832C279.696 249.78 277.529 252.356 276.998 255.506C276.467 258.656 277.451 261.04 280.14 262.802V262.804Z" fill="#CFCEED"/>
<path d="M289.002 271.178C289.01 271.058 289.683 259.014 287.223 244.247C285.778 235.569 283.549 227.656 280.599 220.732C276.903 212.06 272.06 204.918 266.203 199.504L265.648 200.092C271.419 205.426 276.197 212.473 279.846 221.035C282.771 227.899 284.983 235.747 286.419 244.359C288.866 259.041 288.199 271.01 288.192 271.129L289.004 271.176L289.002 271.178Z" fill="#CFCEED"/>
<path d="M264.302 191.593C262.701 188.922 260.013 186.753 256.949 186.267C256.533 186.201 256.2 186.6 256.348 186.989C256.846 188.299 257.742 190.755 257.904 191.072C258.728 192.691 259.723 194.222 260.865 195.639C262.007 197.053 263.299 198.353 264.713 199.501C265.03 199.758 266.24 200.986 266.712 200.65C267.118 200.362 266.6 198.448 266.522 197.992C266.14 195.76 265.474 193.552 264.3 191.595L264.302 191.593Z" fill="#CFCEED"/>
<path d="M278.736 202.801C278.668 200.554 278.14 198.069 276.284 196.774C276.17 196.693 274.75 201.347 274.673 201.793C274.365 203.594 274.317 205.44 274.524 207.256C274.659 208.44 274.843 211.339 275.898 212.1C277.445 213.217 277.976 210.876 278.134 209.933C278.529 207.576 278.81 205.192 278.736 202.799V202.801Z" fill="#CFCEED"/>
<path d="M266.808 213.156C266.479 213.185 266.303 213.56 266.491 213.828C268.61 216.866 271.793 219.167 275.366 220.225C276.592 220.588 279.273 220.64 278.903 218.599C278.697 217.471 276.672 216.169 275.782 215.56C273.185 213.783 269.958 212.886 266.808 213.156Z" fill="#CFCEED"/>
<path d="M287.781 219.591C287.748 219.333 287.448 219.216 287.256 219.385C285.962 220.517 285.161 222.193 284.782 223.909C284.358 225.825 284.404 227.812 284.452 229.775C284.482 231.035 284.391 232.383 284.575 233.624C285.357 233.619 286.27 231.333 286.581 230.66C287.146 229.437 287.57 228.147 287.846 226.823C288.117 225.525 288.246 224.196 288.225 222.869C288.221 222.588 287.913 220.598 287.782 219.593L287.781 219.591Z" fill="#CFCEED"/>
<path d="M273.553 230.25C273.295 230.2 273.102 230.446 273.26 230.622C273.765 231.184 274.375 232.019 274.605 232.234C275.327 232.906 276.109 233.535 276.941 234.115C278.671 235.319 280.616 236.311 282.694 237.044C283.229 237.231 285.039 238.048 285.576 237.762C286.364 237.344 285.353 236.359 285.01 236.024C283.525 234.572 281.733 233.327 279.768 232.344C277.846 231.382 275.741 230.665 273.551 230.25H273.553Z" fill="#CFCEED"/>
<path d="M294.816 250.224C295.862 247.865 295.81 245.058 294.707 242.728C294.583 242.465 294.215 242.444 294.065 242.692L292.082 245.954C291.192 247.418 290.301 248.889 289.573 250.442C289.164 251.316 287.682 253.979 288.485 254.838C290.243 256.722 294.261 251.473 294.816 250.224Z" fill="#CFCEED"/>
<path d="M243.661 175.665C292.648 175.665 332.361 136.341 332.361 87.8325C332.361 39.324 292.648 0 243.661 0C194.673 0 154.961 39.324 154.961 87.8325C154.961 136.341 194.673 175.665 243.661 175.665Z" fill="#8C9AFF"/>
<path d="M243.654 159.081C283.391 159.081 315.604 127.182 315.604 87.8326C315.604 48.4833 283.391 16.5844 243.654 16.5844C203.917 16.5844 171.703 48.4833 171.703 87.8326C171.703 127.182 203.917 159.081 243.654 159.081Z" fill="#2F29C4"/>
<path d="M377.277 101.261H384.731C388.48 101.261 390.823 105.15 388.949 108.26L385.222 114.445L381.495 120.629C379.62 123.74 374.933 123.74 373.059 120.629L369.332 114.445L365.605 108.26C363.731 105.15 366.074 101.261 369.823 101.261H377.277Z" fill="#E5E4ED"/>
<path d="M254.033 162.5H258.227C260.335 162.5 261.654 164.688 260.6 166.438L258.503 169.916L256.406 173.395C255.351 175.145 252.715 175.145 251.66 173.395L249.562 169.916L247.465 166.438C246.41 164.688 247.729 162.5 249.839 162.5H254.032H254.033Z" fill="#C7F0EE"/>
<path d="M368.866 45.7077L371.774 50.2853C373.236 52.5886 371.548 55.5438 368.734 55.6058L363.142 55.7284L357.549 55.851C354.735 55.913 352.909 53.0343 354.259 50.669L356.944 45.9673L359.629 41.2656C360.979 38.9003 364.496 38.8238 365.958 41.1271L368.866 45.7048V45.7077Z" fill="#8C9AFF"/>
<path d="M126.258 51.5415L130.789 54.6827C133.069 56.2634 132.709 59.6152 130.141 60.7156L125.036 62.905L119.931 65.0943C117.363 66.1961 114.513 64.2203 114.801 61.5391L115.375 56.2086L115.948 50.8781C116.236 48.197 119.446 46.8196 121.726 48.4003L126.258 51.5415Z" fill="#E5E4ED"/>
<path d="M97.9023 133.614V140.754C97.9023 144.345 93.8437 146.591 90.5958 144.795L84.1403 141.226L77.6849 137.656C74.4384 135.861 74.4384 131.371 77.6849 129.574L84.1403 126.004L90.5958 122.435C93.8423 120.639 97.9023 122.883 97.9023 126.476V133.617V133.614Z" fill="#8C9AFF"/>
<path d="M213.357 58.5621C213.903 58.0163 214.551 57.5834 215.264 57.2879C215.978 56.9925 216.743 56.8405 217.515 56.8405C218.288 56.8405 219.052 56.9925 219.766 57.2879C220.479 57.5834 221.128 58.0163 221.673 58.5621L243.014 79.864L264.354 58.5621C264.9 58.0168 265.549 57.5843 266.262 57.2892C266.976 56.9941 267.74 56.8422 268.513 56.8422C269.285 56.8422 270.05 56.9941 270.763 57.2892C271.477 57.5843 272.125 58.0168 272.671 58.5621C273.217 59.1074 273.65 59.7547 273.946 60.4672C274.241 61.1796 274.393 61.9432 274.393 62.7144C274.393 63.4855 274.241 64.2491 273.946 64.9616C273.65 65.674 273.217 66.3214 272.671 66.8667L251.338 88.1764L272.671 109.486C273.774 110.587 274.393 112.081 274.393 113.638C274.393 115.196 273.774 116.689 272.671 117.791C271.568 118.892 270.072 119.511 268.513 119.511C266.953 119.511 265.457 118.892 264.354 117.791L243.014 96.4888L221.673 117.791C220.571 118.892 219.075 119.511 217.515 119.511C215.956 119.511 214.46 118.892 213.357 117.791C212.254 116.689 211.635 115.196 211.635 113.638C211.635 112.081 212.254 110.587 213.357 109.486L234.69 88.1764L213.357 66.8667C212.81 66.3217 212.377 65.6744 212.081 64.9619C211.785 64.2494 211.633 63.4857 211.633 62.7144C211.633 61.9431 211.785 61.1793 212.081 60.4669C212.377 59.7544 212.81 59.1071 213.357 58.5621Z" fill="#4242D1"/>
<path d="M213.357 57.1046C213.903 56.5588 214.551 56.1258 215.264 55.8304C215.978 55.535 216.743 55.3829 217.515 55.3829C218.288 55.3829 219.052 55.535 219.766 55.8304C220.479 56.1258 221.128 56.5588 221.673 57.1046L243.014 78.4065L264.354 57.1046C264.9 56.5593 265.549 56.1268 266.262 55.8317C266.976 55.5366 267.74 55.3847 268.513 55.3847C269.285 55.3847 270.05 55.5366 270.763 55.8317C271.477 56.1268 272.125 56.5593 272.671 57.1046C273.217 57.6499 273.65 58.2972 273.946 59.0097C274.241 59.7221 274.393 60.4857 274.393 61.2569C274.393 62.028 274.241 62.7916 273.946 63.5041C273.65 64.2165 273.217 64.8639 272.671 65.4091L251.338 86.7189L272.671 108.029C273.774 109.13 274.393 110.624 274.393 112.181C274.393 113.738 273.774 115.232 272.671 116.333C271.568 117.434 270.072 118.053 268.513 118.053C266.953 118.053 265.457 117.434 264.354 116.333L243.014 95.0313L221.673 116.333C220.571 117.434 219.075 118.053 217.515 118.053C215.956 118.053 214.46 117.434 213.357 116.333C212.254 115.232 211.635 113.738 211.635 112.181C211.635 110.624 212.254 109.13 213.357 108.029L234.69 86.7189L213.357 65.4091C212.81 64.8641 212.377 64.2169 212.081 63.5044C211.785 62.7919 211.633 62.0282 211.633 61.2569C211.633 60.4856 211.785 59.7218 212.081 59.0093C212.377 58.2969 212.81 57.6496 213.357 57.1046Z" fill="#E3E2ED"/>
</g>
<defs>
<clipPath id="clip0_2889_10614">
<rect width="451" height="274" fill="white"/>
</clipPath>
</defs>
</svg>
