<svg width="22" height="22" viewBox="0 0 22 22" fill="none" xmlns="http://www.w3.org/2000/svg">
<g clip-path="url(#clip0_4551_20292)">
<path d="M2.74479 2.75586H19.2448C19.4879 2.75586 19.7211 2.85244 19.893 3.02434C20.0649 3.19625 20.1615 3.42941 20.1615 3.67253V18.3392C20.1615 18.5823 20.0649 18.8155 19.893 18.9874C19.7211 19.1593 19.4879 19.2559 19.2448 19.2559H2.74479C2.50168 19.2559 2.26852 19.1593 2.09661 18.9874C1.9247 18.8155 1.82813 18.5823 1.82812 18.3392V3.67253C1.82812 3.42941 1.9247 3.19625 2.09661 3.02434C2.26852 2.85244 2.50168 2.75586 2.74479 2.75586ZM18.3281 6.64069L11.0608 13.149L3.66146 6.62053V17.4225H18.3281V6.64069ZM4.12988 4.58919L11.0507 10.696L17.8716 4.58919H4.12988Z" fill="white" fill-opacity="0.4"/>
</g>
<defs>
<clipPath id="clip0_4551_20292">
<rect width="22" height="22" fill="white" transform="translate(0 0.00585938)"/>
</clipPath>
</defs>
</svg>
