<svg width="22" height="22" viewBox="0 0 22 22" fill="none" xmlns="http://www.w3.org/2000/svg">
<g clip-path="url(#clip0_4551_20357)">
<path d="M11 4.1638L15.5375 -0.373704C16.4348 -1.27112 17.0459 -2.41446 17.2934 -3.65915C17.541 -4.90385 17.4138 -6.19399 16.9282 -7.36644C16.4425 -8.5389 15.62 -9.54101 14.5648 -10.2461C13.5096 -10.9511 12.2691 -11.3274 11 -11.3274C9.73093 -11.3274 8.49036 -10.9511 7.43516 -10.2461C6.37996 -9.54101 5.55752 -8.5389 5.07184 -7.36644C4.58616 -6.19399 4.45905 -4.90385 4.70658 -3.65915C4.95412 -2.41446 5.56518 -1.27112 6.4625 -0.373704L11 4.1638ZM11 6.75613L5.16634 0.922462C4.01256 -0.231324 3.22684 -1.70133 2.90852 -3.30167C2.5902 -4.90202 2.75358 -6.56081 3.37801 -8.06829C4.00243 -9.57578 5.05986 -10.8642 6.41656 -11.7708C7.77326 -12.6773 9.36831 -13.1611 11 -13.1611C12.6317 -13.1611 14.2267 -12.6773 15.5834 -11.7708C16.9402 -10.8642 17.9976 -9.57578 18.622 -8.06829C19.2464 -6.56081 19.4098 -4.90202 19.0915 -3.30167C18.7732 -1.70133 17.9874 -0.231324 16.8337 0.922462L11 6.75613ZM11 -3.07787C11.4862 -3.07787 11.9525 -3.27103 12.2964 -3.61484C12.6402 -3.95866 12.8333 -4.42497 12.8333 -4.9112C12.8333 -5.39743 12.6402 -5.86375 12.2964 -6.20757C11.9525 -6.55138 11.4862 -6.74454 11 -6.74454C10.5138 -6.74454 10.0475 -6.55138 9.70364 -6.20757C9.35982 -5.86375 9.16667 -5.39743 9.16667 -4.9112C9.16667 -4.42497 9.35982 -3.95866 9.70364 -3.61484C10.0475 -3.27103 10.5138 -3.07787 11 -3.07787ZM11 -1.24454C10.0275 -1.24454 9.09491 -1.63085 8.40728 -2.31848C7.71965 -3.00611 7.33334 -3.93874 7.33334 -4.9112C7.33334 -5.88366 7.71965 -6.8163 8.40728 -7.50393C9.09491 -8.19156 10.0275 -8.57787 11 -8.57787C11.9725 -8.57787 12.9051 -8.19156 13.5927 -7.50393C14.2804 -6.8163 14.6667 -5.88366 14.6667 -4.9112C14.6667 -3.93874 14.2804 -3.00611 13.5927 -2.31848C12.9051 -1.63085 11.9725 -1.24454 11 -1.24454Z" fill="white" fill-opacity="0.4"/>
</g>
<defs>
<clipPath id="clip0_4551_20357">
<rect width="22" height="22" fill="white"/>
</clipPath>
</defs>
</svg>
