<svg width="22" height="22" viewBox="0 0 22 22" fill="none" xmlns="http://www.w3.org/2000/svg">
<g clip-path="url(#clip0_4551_20352)">
<path d="M8.5855 9.79769C9.44564 11.3088 10.6971 12.5602 12.2082 13.4204L13.0185 12.2855C13.1488 12.1031 13.3415 11.9747 13.5601 11.9247C13.7787 11.8747 14.008 11.9065 14.2047 12.0142C15.5011 12.7227 16.9329 13.1488 18.4058 13.2645C18.6356 13.2827 18.8502 13.3869 19.0067 13.5563C19.1631 13.7257 19.25 13.9478 19.25 14.1784V18.2686C19.25 18.4956 19.1659 18.7145 19.0138 18.883C18.8618 19.0515 18.6526 19.1575 18.4268 19.1807C17.941 19.2311 17.4515 19.2559 16.9583 19.2559C9.11167 19.2559 2.75 12.8942 2.75 5.04753C2.75 4.55436 2.77475 4.06486 2.82517 3.57903C2.84832 3.35325 2.9544 3.14409 3.12289 2.99202C3.29138 2.83996 3.51029 2.75581 3.73725 2.75586H7.82742C8.05802 2.75583 8.28015 2.84271 8.44954 2.99919C8.61893 3.15566 8.72312 3.37023 8.74133 3.60011C8.85704 5.073 9.28315 6.50473 9.99167 7.80119C10.0993 7.99788 10.1312 8.22721 10.0812 8.44579C10.0312 8.66437 9.90281 8.85705 9.72033 8.98736L8.5855 9.79769ZM6.27367 9.19544L8.01533 7.95153C7.52105 6.88461 7.18241 5.7523 7.00975 4.58919H4.5925C4.587 4.74136 4.58425 4.89444 4.58425 5.04753C4.58333 11.8822 10.1237 17.4225 16.9583 17.4225C17.1114 17.4225 17.2645 17.4198 17.4167 17.4134V14.9961C16.2536 14.8235 15.1212 14.4848 14.0543 13.9905L12.8104 15.7322C12.3096 15.5376 11.8232 15.3079 11.3548 15.0447L11.3016 15.0144C9.50361 13.9912 8.01467 12.5022 6.99142 10.7043L6.96117 10.6511C6.698 10.1827 6.46826 9.69625 6.27367 9.19544Z" fill="white" fill-opacity="0.4"/>
</g>
<defs>
<clipPath id="clip0_4551_20352">
<rect width="22" height="22" fill="white" transform="translate(0 0.00585938)"/>
</clipPath>
</defs>
</svg>
