<svg width="454" height="276" viewBox="0 0 454 276" fill="none" xmlns="http://www.w3.org/2000/svg">
<g clip-path="url(#clip0_2891_10858)">
<path d="M0 276C38.4176 202.163 66.8021 191.16 86.5434 197.365C119.395 207.689 133.442 267.273 163.693 257.492C186.834 250.01 191.294 211.041 214.04 212.253C233.844 213.306 236.949 243.192 257.145 255.644C293.986 278.358 317.499 199.778 361.369 196.008C381.367 194.289 409.407 207.787 444.684 274.591C296.457 275.06 148.228 275.529 0.00145703 276H0Z" fill="#6373E5"/>
<path d="M355.883 272.394C354.609 261.094 354.618 252.132 350.626 241.473C346.634 230.814 340.432 220.779 331.614 213.505C328.636 211.048 324.893 208.818 321.105 209.623C316.088 210.689 313.616 216.805 314.669 221.781C315.723 226.757 319.233 230.807 322.536 234.698C333.019 247.043 342.628 260.118 351.271 273.792L355.883 272.394Z" fill="#8C9AFF"/>
<path d="M353.477 273.693C353.214 273.693 352.976 273.512 352.918 273.246C352.899 273.158 350.951 264.337 346.559 253.487C342.517 243.497 335.518 229.69 325.132 220.651C324.895 220.445 324.871 220.086 325.08 219.851C325.288 219.615 325.651 219.592 325.888 219.798C330.557 223.862 334.942 229.193 338.924 235.641C342.102 240.788 345.031 246.656 347.63 253.084C352.054 264.021 354.018 272.919 354.038 273.007C354.105 273.314 353.909 273.616 353.6 273.681C353.559 273.69 353.518 273.695 353.479 273.695L353.477 273.693Z" fill="#2F29C4"/>
<path d="M353.594 274.178C357.585 258.936 369.923 244.722 382.337 234.89C394.749 225.057 410.421 219.333 426.306 218.831C429.456 218.73 432.722 218.855 435.562 220.209C438.402 221.563 440.714 224.43 440.513 227.546C440.295 230.931 437.378 233.457 434.596 235.434C414.674 249.59 382.146 256.93 365.052 274.341L353.594 274.178Z" fill="#8C9AFF"/>
<path d="M364.605 274.62C364.542 274.62 364.48 274.61 364.417 274.588C364.118 274.485 363.959 274.162 364.063 273.866C364.093 273.777 364.837 271.671 366.588 268.356C368.199 265.305 371.006 260.62 375.221 255.623C379.959 250.009 385.478 245.152 391.623 241.187C399.303 236.233 407.987 232.67 417.434 230.595C417.743 230.527 418.049 230.72 418.117 231.027C418.186 231.333 417.991 231.635 417.682 231.704C408.38 233.746 399.833 237.252 392.275 242.123C386.229 246.019 380.797 250.794 376.131 256.315C371.977 261.231 369.212 265.841 367.624 268.844C365.902 272.099 365.153 274.217 365.145 274.238C365.064 274.473 364.841 274.62 364.603 274.62H364.605Z" fill="#2F29C4"/>
<path d="M353.599 274.016C353.051 234.968 370.423 196.868 404.797 177.765C408.402 175.762 412.256 173.923 416.384 173.708C420.511 173.491 424.987 175.255 426.873 178.9C428.516 182.077 427.882 186.03 426.165 189.168C424.447 192.306 421.779 194.809 419.193 197.296C395.67 219.906 370.139 245.983 353.6 274.017L353.599 274.016Z" fill="#E5E4ED"/>
<path d="M353.629 274.663C353.588 274.663 353.547 274.659 353.506 274.65C353.197 274.584 353.001 274.281 353.068 273.975C353.098 273.837 356.176 260.02 364.774 242.56C369.824 232.307 375.763 222.816 382.428 214.349C390.764 203.76 400.264 194.755 410.664 187.585C410.924 187.406 411.281 187.468 411.461 187.727C411.642 187.984 411.578 188.339 411.319 188.517C401.017 195.62 391.606 204.541 383.343 215.033C376.729 223.433 370.832 232.853 365.817 243.029C357.273 260.371 354.216 274.079 354.185 274.216C354.127 274.482 353.89 274.663 353.626 274.663H353.629Z" fill="#4242D1"/>
<path d="M129.398 272.293C130.56 261.987 130.552 253.812 134.194 244.09C137.835 234.368 143.491 225.214 151.535 218.579C154.251 216.339 157.666 214.304 161.121 215.039C165.696 216.011 167.952 221.591 166.99 226.129C166.028 230.668 162.829 234.362 159.815 237.91C150.254 249.17 141.489 261.096 133.605 273.568L129.398 272.294V272.293Z" fill="#8C9AFF"/>
<path d="M131.608 273.478C131.848 273.478 132.065 273.312 132.118 273.07C132.135 272.99 133.913 264.945 137.918 255.047C141.606 245.935 147.989 233.342 157.461 225.097C157.679 224.908 157.699 224.581 157.51 224.366C157.319 224.151 156.989 224.13 156.772 224.318C152.513 228.025 148.514 232.886 144.883 238.769C141.985 243.464 139.313 248.816 136.942 254.678C132.908 264.654 131.115 272.769 131.098 272.849C131.037 273.128 131.216 273.404 131.499 273.465C131.536 273.472 131.573 273.477 131.609 273.477L131.608 273.478Z" fill="#2F29C4"/>
<path d="M131.494 273.92C127.853 260.018 116.601 247.052 105.278 238.084C93.9568 229.116 79.6619 223.895 65.1746 223.437C62.3013 223.347 59.3217 223.461 56.7311 224.695C54.1405 225.93 52.0307 228.544 52.2143 231.387C52.4139 234.474 55.0744 236.78 57.6111 238.581C75.7818 251.492 105.451 258.188 121.042 274.068L131.493 273.92H131.494Z" fill="#8C9AFF"/>
<path d="M121.448 274.322C121.505 274.322 121.563 274.313 121.619 274.293C121.891 274.2 122.035 273.905 121.942 273.635C121.914 273.555 121.237 271.633 119.639 268.608C118.168 265.826 115.61 261.552 111.765 256.996C107.443 251.875 102.409 247.444 96.8039 243.828C89.7985 239.31 81.8781 236.059 73.2612 234.166C72.98 234.104 72.7002 234.281 72.6376 234.56C72.5749 234.839 72.7527 235.116 73.0353 235.177C81.5196 237.041 89.3162 240.239 96.2095 244.68C101.724 248.233 106.678 252.589 110.934 257.625C114.724 262.11 117.246 266.314 118.694 269.053C120.265 272.022 120.948 273.954 120.954 273.973C121.029 274.187 121.231 274.322 121.448 274.322Z" fill="#2F29C4"/>
<path d="M131.493 273.772C131.993 238.155 116.148 203.405 84.7955 185.981C81.5069 184.153 77.9926 182.477 74.2276 182.279C70.4626 182.081 66.38 183.69 64.6607 187.015C63.1614 189.913 63.7399 193.519 65.3062 196.381C66.8725 199.243 69.3057 201.527 71.6647 203.795C93.1195 224.417 116.407 248.201 131.492 273.772H131.493Z" fill="#E5E4ED"/>
<path d="M131.447 274.363C131.483 274.363 131.521 274.358 131.558 274.351C131.84 274.29 132.018 274.016 131.957 273.735C131.929 273.61 129.122 261.006 121.28 245.082C116.674 235.731 111.255 227.072 105.177 219.351C97.5739 209.693 88.9089 201.479 79.4222 194.938C79.1861 194.776 78.8597 194.832 78.6951 195.068C78.5304 195.303 78.5887 195.626 78.8262 195.788C88.2212 202.266 96.806 210.403 104.342 219.973C110.375 227.634 115.753 236.226 120.327 245.509C128.121 261.326 130.908 273.83 130.936 273.955C130.988 274.197 131.205 274.363 131.446 274.363H131.447Z" fill="#4242D1"/>
<path d="M394.722 274.47L393.945 274.215C394.025 273.975 395.997 268.239 403.243 260.585C407.486 256.103 412.665 251.9 418.639 248.091C426.098 243.336 434.824 239.185 444.574 235.754L444.848 236.518C435.175 239.922 426.519 244.036 419.123 248.746C413.209 252.513 408.081 256.667 403.884 261.093C400.151 265.029 397.857 268.457 396.593 270.639C395.222 273.003 394.728 274.456 394.722 274.47Z" fill="#B3B3DD"/>
<path d="M441.328 237.369C441.328 237.369 442.242 232.192 445.672 230.925C449.101 229.658 451.255 229.921 453.287 230.925C455.32 231.929 452.639 233.537 449.56 235.41C446.482 237.281 441.328 237.371 441.328 237.371V237.369Z" fill="#B3B3DD"/>
<path d="M439.645 245.023C440.123 245.19 440.161 245.845 439.705 246.064C435.466 248.102 430.584 248.806 425.936 248.054C425.303 247.951 423.048 247.792 422.813 247.022C422.526 246.079 424.241 245.4 424.869 245.126C427.241 244.088 429.975 243.65 432.552 243.634C434.031 243.624 435.511 243.767 436.961 244.065C437.304 244.136 438.6 244.659 439.645 245.024V245.023Z" fill="#B3B3DD"/>
<path d="M419.409 235.648C419.885 235.151 420.653 235.498 420.711 236.235C420.934 239.024 420.382 241.882 419.432 244.481C418.787 246.247 417.595 250.02 416.03 250.935C413.725 252.282 413.703 249.523 413.926 247.69C414.484 243.119 416.432 238.754 419.407 235.649L419.409 235.648Z" fill="#B3B3DD"/>
<path d="M420.289 256.925C421.009 257.068 421.875 257.402 421.936 258.127C422.004 258.944 421.011 259.389 420.208 259.587C417.7 260.207 415.193 260.829 412.685 261.449C411.167 261.825 409.566 262.2 408.059 261.782C406.931 261.468 405.221 260.134 405.655 258.775C406.056 257.522 408.375 257.248 409.419 257.024C412.985 256.26 416.71 256.219 420.289 256.924V256.925Z" fill="#B3B3DD"/>
<path d="M399.64 265.605C398.948 263.306 398.257 261.006 397.565 258.706C397.159 257.357 396.751 255.992 396.643 254.588C396.535 253.183 396.752 251.713 397.514 250.524C400.088 252.487 402.269 255.082 402.803 258.254C403.338 261.427 402.347 263.829 399.64 265.604V265.605Z" fill="#B3B3DD"/>
<path d="M393.989 274.69C393.981 274.569 393.304 262.437 395.779 247.562C397.235 238.821 399.479 230.851 402.448 223.876C406.168 215.141 411.043 207.947 416.94 202.493L417.498 203.086C411.689 208.458 406.879 215.556 403.206 224.181C400.261 231.095 398.035 239.001 396.589 247.675C394.125 262.465 394.797 274.521 394.804 274.64L393.987 274.688L393.989 274.69Z" fill="#B3B3DD"/>
<path d="M418.862 194.524C420.474 191.834 423.18 189.649 426.264 189.159C426.682 189.092 427.017 189.495 426.869 189.887C426.367 191.206 425.466 193.68 425.302 194C424.473 195.63 423.471 197.173 422.321 198.599C421.172 200.025 419.872 201.333 418.449 202.49C418.129 202.748 416.911 203.986 416.436 203.648C416.027 203.357 416.549 201.429 416.627 200.97C417.012 198.721 417.682 196.497 418.864 194.526L418.862 194.524Z" fill="#B3B3DD"/>
<path d="M404.317 205.814C404.385 203.55 404.917 201.047 406.785 199.743C406.9 199.661 408.329 204.349 408.406 204.798C408.717 206.613 408.765 208.472 408.557 210.301C408.421 211.494 408.236 214.414 407.174 215.181C405.616 216.306 405.082 213.948 404.923 212.998C404.525 210.624 404.242 208.223 404.317 205.812V205.814Z" fill="#B3B3DD"/>
<path d="M416.335 216.246C416.666 216.275 416.844 216.653 416.654 216.923C414.521 219.983 411.317 222.301 407.72 223.366C406.485 223.732 403.787 223.785 404.16 221.729C404.367 220.593 406.405 219.281 407.301 218.668C409.915 216.878 413.165 215.974 416.335 216.246Z" fill="#B3B3DD"/>
<path d="M395.215 222.727C395.249 222.467 395.55 222.349 395.744 222.519C397.046 223.66 397.852 225.348 398.234 227.077C398.661 229.006 398.614 231.008 398.566 232.985C398.536 234.255 398.627 235.612 398.442 236.863C397.656 236.857 396.736 234.554 396.423 233.877C395.855 232.645 395.428 231.345 395.149 230.011C394.877 228.704 394.747 227.366 394.768 226.029C394.772 225.746 395.082 223.741 395.214 222.729L395.215 222.727Z" fill="#B3B3DD"/>
<path d="M409.539 233.464C409.799 233.415 409.992 233.662 409.834 233.839C409.325 234.406 408.712 235.247 408.48 235.463C407.753 236.14 406.966 236.774 406.128 237.358C404.387 238.571 402.429 239.57 400.337 240.308C399.799 240.497 397.976 241.32 397.436 241.032C396.643 240.611 397.66 239.618 398.005 239.281C399.5 237.818 401.304 236.565 403.283 235.574C405.218 234.605 407.336 233.883 409.541 233.464H409.539Z" fill="#B3B3DD"/>
<path d="M388.133 253.584C387.079 251.207 387.132 248.38 388.242 246.032C388.367 245.768 388.738 245.746 388.889 245.996L390.885 249.282C391.781 250.757 392.677 252.239 393.41 253.803C393.823 254.684 395.315 257.365 394.506 258.231C392.736 260.129 388.691 254.842 388.133 253.584Z" fill="#B3B3DD"/>
<path d="M286.923 273.585L287.7 273.33C287.62 273.09 285.648 267.355 278.402 259.7C274.16 255.218 268.98 251.015 263.006 247.206C255.547 242.451 246.821 238.301 237.071 234.869L236.797 235.633C246.47 239.037 255.126 243.151 262.522 247.861C268.436 251.628 273.564 255.782 277.761 260.208C281.494 264.144 283.788 267.572 285.052 269.754C286.423 272.118 286.917 273.571 286.923 273.585Z" fill="#CFCEED"/>
<path d="M240.309 236.484C240.309 236.484 239.395 231.307 235.965 230.04C232.535 228.773 230.382 229.036 228.349 230.04C226.317 231.044 228.998 232.652 232.076 234.525C235.155 236.396 240.309 236.486 240.309 236.486V236.484Z" fill="#CFCEED"/>
<path d="M242.006 244.138C241.528 244.305 241.49 244.96 241.946 245.179C246.185 247.218 251.067 247.921 255.715 247.17C256.348 247.066 258.603 246.907 258.838 246.137C259.125 245.194 257.41 244.515 256.782 244.241C254.41 243.204 251.676 242.765 249.099 242.749C247.62 242.739 246.14 242.882 244.69 243.18C244.348 243.251 243.051 243.774 242.006 244.139V244.138Z" fill="#CFCEED"/>
<path d="M262.235 234.763C261.758 234.266 260.99 234.613 260.932 235.35C260.709 238.139 261.261 240.997 262.211 243.596C262.857 245.362 264.049 249.135 265.614 250.05C267.919 251.397 267.94 248.638 267.717 246.805C267.159 242.235 265.211 237.869 262.236 234.764L262.235 234.763Z" fill="#CFCEED"/>
<path d="M261.361 256.04C260.641 256.183 259.775 256.517 259.714 257.242C259.646 258.06 260.64 258.504 261.442 258.702C263.95 259.322 266.457 259.944 268.965 260.564C270.483 260.94 272.085 261.315 273.591 260.897C274.719 260.583 276.429 259.249 275.995 257.89C275.594 256.637 273.275 256.363 272.232 256.139C268.665 255.375 264.941 255.334 261.361 256.039V256.04Z" fill="#CFCEED"/>
<path d="M281.998 264.722C282.69 262.422 283.381 260.122 284.073 257.823C284.479 256.473 284.887 255.109 284.995 253.704C285.103 252.299 284.886 250.829 284.124 249.641C281.551 251.603 279.37 254.198 278.835 257.371C278.3 260.544 279.291 262.945 281.998 264.72V264.722Z" fill="#CFCEED"/>
<path d="M290.923 273.157C290.931 273.036 291.608 260.904 289.133 246.029C287.677 237.288 285.433 229.318 282.464 222.343C278.744 213.608 273.869 206.414 267.972 200.96L267.414 201.553C273.223 206.925 278.033 214.023 281.706 222.648C284.651 229.562 286.877 237.468 288.322 246.143C290.786 260.932 290.115 272.988 290.107 273.108L290.925 273.155L290.923 273.157Z" fill="#CFCEED"/>
<path d="M266.058 192.992C264.446 190.301 261.741 188.116 258.656 187.626C258.238 187.56 257.903 187.962 258.051 188.354C258.553 189.673 259.455 192.147 259.618 192.467C260.447 194.097 261.449 195.64 262.599 197.067C263.748 198.492 265.048 199.801 266.472 200.957C266.791 201.216 268.009 202.453 268.484 202.115C268.893 201.824 268.372 199.897 268.293 199.437C267.908 197.189 267.238 194.964 266.056 192.993L266.058 192.992Z" fill="#CFCEED"/>
<path d="M280.585 204.281C280.517 202.018 279.985 199.514 278.117 198.21C278.002 198.129 276.573 202.817 276.495 203.266C276.185 205.08 276.137 206.94 276.345 208.769C276.481 209.961 276.666 212.881 277.728 213.648C279.286 214.773 279.82 212.415 279.979 211.465C280.377 209.091 280.66 206.69 280.585 204.28V204.281Z" fill="#CFCEED"/>
<path d="M268.584 214.712C268.253 214.741 268.076 215.119 268.265 215.389C270.398 218.449 273.602 220.767 277.199 221.832C278.434 222.198 281.132 222.25 280.759 220.195C280.552 219.059 278.514 217.747 277.618 217.134C275.004 215.344 271.755 214.44 268.584 214.712Z" fill="#CFCEED"/>
<path d="M289.694 221.194C289.66 220.934 289.359 220.816 289.165 220.986C287.862 222.127 287.057 223.815 286.675 225.544C286.248 227.473 286.295 229.475 286.343 231.452C286.373 232.722 286.282 234.079 286.467 235.329C287.253 235.324 288.173 233.021 288.486 232.344C289.054 231.112 289.481 229.812 289.76 228.478C290.032 227.171 290.162 225.833 290.141 224.496C290.137 224.213 289.827 222.208 289.695 221.196L289.694 221.194Z" fill="#CFCEED"/>
<path d="M275.367 231.93C275.108 231.881 274.914 232.128 275.073 232.305C275.582 232.872 276.195 233.713 276.427 233.929C277.154 234.606 277.941 235.24 278.778 235.824C280.52 237.037 282.478 238.036 284.57 238.774C285.108 238.963 286.93 239.785 287.471 239.498C288.264 239.076 287.247 238.084 286.901 237.747C285.406 236.284 283.603 235.03 281.624 234.04C279.689 233.071 277.57 232.349 275.366 231.93H275.367Z" fill="#CFCEED"/>
<path d="M296.774 252.051C297.827 249.674 297.775 246.847 296.664 244.499C296.539 244.235 296.169 244.213 296.017 244.463L294.021 247.749C293.125 249.224 292.229 250.706 291.496 252.27C291.084 253.151 289.592 255.832 290.4 256.698C292.171 258.596 296.215 253.309 296.774 252.051Z" fill="#CFCEED"/>
<path d="M245.282 176.947C294.596 176.947 334.572 137.336 334.572 88.4736C334.572 39.611 294.596 0 245.282 0C195.969 0 155.992 39.611 155.992 88.4736C155.992 137.336 195.969 176.947 245.282 176.947Z" fill="#8C9AFF"/>
<path d="M245.273 160.242C285.274 160.242 317.702 128.11 317.702 88.4736C317.702 48.8371 285.274 16.7053 245.273 16.7053C205.271 16.7053 172.844 48.8371 172.844 88.4736C172.844 128.11 205.271 160.242 245.273 160.242Z" fill="#2F29C4"/>
<path d="M379.789 102H387.292C391.066 102 393.425 105.917 391.538 109.051L387.786 115.28L384.034 121.51C382.147 124.643 377.43 124.643 375.543 121.51L371.791 115.28L368.039 109.051C366.152 105.917 368.511 102 372.285 102H379.789Z" fill="#E5E4ED"/>
<path d="M255.728 163.687H259.949C262.072 163.687 263.399 165.89 262.339 167.653L260.227 171.157L258.116 174.661C257.054 176.423 254.401 176.423 253.339 174.661L251.227 171.157L249.116 167.653C248.054 165.89 249.381 163.687 251.506 163.687H255.727H255.728Z" fill="#C7F0EE"/>
<path d="M371.318 46.0412L374.245 50.6523C375.717 52.9724 374.018 55.9491 371.185 56.0116L365.555 56.1351L359.925 56.2585C357.093 56.321 355.254 53.4213 356.614 51.0387L359.316 46.3027L362.019 41.5667C363.379 39.1841 366.919 39.1072 368.391 41.4272L371.318 46.0383V46.0412Z" fill="#8C9AFF"/>
<path d="M127.1 51.9177L131.662 55.0819C133.956 56.6741 133.594 60.0503 131.009 61.1588L125.87 63.3641L120.731 65.5694C118.146 66.6793 115.277 64.689 115.567 61.9883L116.144 56.6189L116.721 51.2495C117.011 48.5488 120.243 47.1614 122.538 48.7536L127.1 51.9177Z" fill="#E5E4ED"/>
<path d="M98.5529 134.589V141.782C98.5529 145.399 94.4674 147.661 91.1978 145.852L84.6995 142.257L78.2011 138.661C74.933 136.852 74.933 132.33 78.2011 130.52L84.6995 126.924L91.1978 123.329C94.466 121.52 98.5529 123.78 98.5529 127.399V134.592V134.589Z" fill="#8C9AFF"/>
<path d="M249.392 52.8511C268.56 52.8511 284.306 66.8208 286.967 84.9654H298.261L279.256 106.375L260.252 84.9654H272.849C271.634 79.726 268.653 75.0473 264.393 71.6935C260.133 68.3396 254.845 66.5087 249.392 66.4997C241.519 66.4997 234.569 70.2999 230.171 76.0269L220.885 65.5898C224.439 61.5838 228.822 58.3743 233.739 56.1771C238.656 53.9798 243.994 52.8457 249.392 52.8511ZM247.22 124.787C228.107 124.787 212.306 110.817 209.646 92.6729H198.352L217.356 71.2633C223.709 78.382 230.008 85.5542 236.361 92.6729H223.763C224.978 97.9123 227.959 102.591 232.219 105.945C236.48 109.299 241.768 111.13 247.22 111.139C255.094 111.139 262.044 107.338 266.442 101.611L275.727 112.048C272.177 116.059 267.794 119.271 262.877 121.468C257.959 123.666 252.62 124.798 247.22 124.787Z" fill="#4242D1"/>
<path d="M249.392 48.4468C268.56 48.4468 284.306 62.4165 286.967 80.5611H298.261L279.256 101.971L260.252 80.5611H272.849C271.634 75.3217 268.653 70.643 264.393 67.2892C260.133 63.9353 254.845 62.1044 249.392 62.0954C241.519 62.0954 234.569 65.8956 230.171 71.6226L220.885 61.1855C224.439 57.1795 228.822 53.97 233.739 51.7728C238.656 49.5755 243.994 48.4414 249.392 48.4468ZM247.22 120.383C228.107 120.383 212.306 106.413 209.646 88.2686H198.352L217.356 66.859C223.709 73.9777 230.008 81.1499 236.361 88.2686H223.763C224.978 93.508 227.959 98.1866 232.219 101.541C236.48 104.894 241.768 106.725 247.22 106.734C255.094 106.734 262.044 102.934 266.442 97.207L275.727 107.644C272.177 111.654 267.794 114.867 262.877 117.064C257.959 119.262 252.62 120.393 247.22 120.383Z" fill="#E3E2ED"/>
</g>
<defs>
<clipPath id="clip0_2891_10858">
<rect width="454" height="276" fill="white"/>
</clipPath>
</defs>
</svg>
